<svg xmlns="http://www.w3.org/2000/svg" height="1536" preserveAspectRatio="none" style="display: block;" version="1.1" viewBox="0 0 3072 1536" width="3072">
<path d="M 248.738 590.424 L 249.093 589.282 C 250.434 584.91 251.588 575.032 252.953 573.271 C 257.841 571.723 259.907 572.686 264.377 575.149 C 294.165 591.568 337.57 591.725 369.835 582.535 C 391.811 576.276 412.696 561.999 430.823 548.631 C 437.179 543.951 444.845 526.093 453.194 532.001 C 463.561 539.336 471.366 550.952 481.914 558.354 C 521.396 588.38 569.548 593.901 617.176 584.6 C 626.678 582.744 639.399 571.737 649.415 575.069 C 657.305 580.196 653.349 596.111 654.305 603.589 C 655.117 609.936 659.55 617.3 659.701 622.127 C 660.724 654.877 662.71 687.642 655.193 719.796 C 652.803 730.021 656.465 737.024 649.687 747.356 C 649.307 747.934 648.92 748.508 648.527 749.078 C 648.634 760.493 648.967 762.219 642.267 771.662 C 642.976 788.969 631.254 800.035 629.551 816.684 C 627.057 821.574 622.621 827.65 620.297 832.436 C 603.757 866.497 587.295 892.408 560.137 920.448 C 530.574 950.972 490.482 990.622 449.062 1005.31 C 448.239 1005.6 442.747 1004.75 441.623 1004.56 C 430.539 998.189 381.006 963.522 377.058 954.097 C 373.611 952.188 364.267 946.418 361.948 943.332 C 350.683 928.343 312.609 898.941 311.943 880.684 C 311.493 868.371 344.76 834.021 354.116 824.735 C 360.965 821.926 377.307 803.245 383.783 798.465 C 401.445 785.43 437.145 758.391 456.85 750.247 C 473.69 749.37 465.15 750.912 480.747 742.306 L 476.512 747.011 C 472.236 751.837 469.593 752.496 467.171 758.949 C 475.767 751.669 486.478 741.28 495.839 733.114 C 489.723 735.812 475.853 742.674 469.739 742.55 C 476.06 739.378 485.052 732.218 491.811 728.087 C 503.582 723.251 519.794 712.796 532.988 708.247 C 536.673 706.977 545.685 704.553 547.632 702.143 C 541.266 701.877 509.037 712.098 501.65 714.732 C 475.647 723.607 417.82 750.019 397.031 766.392 C 393.879 768.587 390.055 770.54 386.677 772.621 C 380.811 778.5 373.014 782.189 365.783 788.593 C 347.194 804.812 327.233 821.243 312.33 841.16 C 309.374 845.111 302.363 847.429 301.488 853.032 C 300.909 856.74 300.252 857.175 296.858 857.954 C 291.616 855.859 289.203 851.887 286.5 847.13 C 271.84 821.329 261.024 793.802 253.35 765.175 C 252.296 761.244 248.589 749.463 249.874 746.217 C 253.662 736.648 275.071 723.572 283.955 718.972 C 287.869 717.153 292.917 714.051 296.678 711.781 C 342.033 684.41 391.866 666.533 442.534 651.095 C 446.525 649.58 466.382 645.887 467.641 644.518 C 465.332 643.226 442.322 647.323 438.153 647.909 C 414.037 651.228 348.106 667.734 327.053 679.312 L 325.594 680.398 C 319.498 683.667 310.825 686.871 303.991 690.114 C 291.646 696.074 279.493 702.424 267.551 709.154 C 265.514 710.276 260.579 713.213 258.554 713.656 C 256.112 713.568 253.501 713.352 251.048 713.195 C 245.8 704.209 250.832 610.376 248.738 590.424 z M 585.875 704.648 C 592.012 701.507 598.369 697.538 604.292 693.967 L 604.902 693.605 C 600.258 693.861 580.971 694.897 577.301 696.699 C 580.178 697.325 586.376 696.378 589.575 695.832 C 589.997 695.76 594.815 694.825 594.88 696.715 C 591.518 699.862 589.149 700.672 585.875 704.648 z" fill="rgb(35,39,12)" transform="translate(0,0)"></path>
<path d="M 577.301 696.699 C 580.971 694.897 600.258 693.861 604.902 693.605 L 604.292 693.967 C 598.369 697.538 592.012 701.507 585.875 704.648 C 589.149 700.672 591.518 699.862 594.88 696.715 C 594.815 694.825 589.997 695.76 589.575 695.832 C 586.376 696.378 580.178 697.325 577.301 696.699 z" fill="rgb(198,218,10)" fill-opacity="0.980392" transform="translate(0,0)"></path>
<path d="M 577.301 696.699 C 580.178 697.325 586.376 696.378 589.575 695.832 C 589.997 695.76 594.815 694.825 594.88 696.715 C 591.518 699.862 589.149 700.672 585.875 704.648 C 574.135 712.848 562.876 720.626 551.847 729.946 C 476.187 793.882 446.664 892.317 446.72 988.602 C 446.723 993.417 447.138 998.286 447.196 1003.13 C 444.794 1004.56 444.346 1004.44 441.623 1004.56 C 430.539 998.189 381.006 963.522 377.058 954.097 C 373.611 952.188 364.267 946.418 361.948 943.332 C 350.683 928.343 312.609 898.941 311.943 880.684 C 311.493 868.371 344.76 834.021 354.116 824.735 C 360.965 821.926 377.307 803.245 383.783 798.465 C 401.445 785.43 437.145 758.391 456.85 750.247 C 473.69 749.37 465.15 750.912 480.747 742.306 L 476.512 747.011 C 472.236 751.837 469.593 752.496 467.171 758.949 C 475.767 751.669 486.478 741.28 495.839 733.114 C 489.723 735.812 475.853 742.674 469.739 742.55 C 476.06 739.378 485.052 732.218 491.811 728.087 C 503.582 723.251 519.794 712.796 532.988 708.247 C 536.673 706.977 545.685 704.553 547.632 702.143 C 557.962 699.248 566.597 697.548 577.301 696.699 z" fill="rgb(198,218,10)" transform="translate(0,0)"></path>
<path d="M 456.85 750.247 C 473.69 749.37 465.15 750.912 480.747 742.306 L 476.512 747.011 C 472.236 751.837 469.593 752.496 467.171 758.949 C 459.825 767.959 448.181 779.409 441.804 788.317 C 412.136 829.759 389.93 875.198 380.603 925.561 C 379.337 932.393 376.541 947.422 377.058 954.097 C 373.611 952.188 364.267 946.418 361.948 943.332 C 350.683 928.343 312.609 898.941 311.943 880.684 C 311.493 868.371 344.76 834.021 354.116 824.735 C 360.965 821.926 377.307 803.245 383.783 798.465 C 401.445 785.43 437.145 758.391 456.85 750.247 z" fill="rgb(35,39,12)" transform="translate(0,0)"></path>
<path d="M 892.716 558.427 L 988.001 558.342 C 997.444 558.318 1037.64 555.722 1042.6 562.112 C 1044.59 572.687 1041.91 594.339 1041.77 605.795 C 1041.69 612.284 1043.98 617.372 1042.9 623.74 C 1041.3 627.209 1038.67 628.045 1035.18 629.954 C 1010.64 627.567 982.123 628.989 957.131 628.689 C 934.583 628.423 915.319 628.985 892.49 629.695 C 865.111 630.546 863.084 662.793 883.007 674.114 C 886.714 676.22 902.045 675.172 907.175 675.24 C 926.823 675.499 947.693 673.31 967.188 676.47 C 987.507 680.086 1013.88 695.596 1025.05 713.249 C 1037.12 732.316 1047.82 760.704 1043.18 783.601 C 1041.24 792.363 1035.81 811.109 1031.3 819.71 C 1029.4 820.916 1027.8 821.929 1026.51 822.748 C 1016.34 848.542 976.831 863.019 951.177 864.018 C 921.957 864.536 891.168 863.91 861.862 864.102 C 847.616 864.194 811.022 865.341 799.625 862.635 C 796.557 859.004 797.623 804.686 797.978 796.192 C 812.647 792.505 826.088 793.774 841.271 793.857 L 918.218 794.129 C 928.87 794.121 939.369 794.656 950.011 793.973 C 960.763 793.282 962.902 789.568 970.933 784.473 C 972.11 774.389 971.601 765.871 971.775 755.788 C 968.963 753.51 963.942 749.415 960.592 748.709 C 942.835 745.08 915.022 747.285 897.493 747.019 C 857.182 746.405 823.877 731.482 807.195 693.701 C 806.702 692.586 805.094 692.453 804.324 689.324 C 802.245 680.873 799.692 672.467 798.028 663.914 C 795.066 640.728 803.757 614.184 817.503 595.662 C 828.474 580.879 839.589 572.364 856.547 565.665 C 868.598 560.905 880.194 560.167 892.716 558.427 z" fill="rgb(35,39,12)" transform="translate(0,0)"></path>
<path d="M 1462.86 555.316 C 1503.76 552.307 1537.81 561.893 1569.52 588.224 C 1572.57 590.757 1587.89 606.955 1590 609.905 C 1590.14 618.384 1613.1 645.89 1608.97 661.527 C 1608.87 661.919 1613.23 669.51 1613.3 672.264 C 1615.1 734.5 1613.6 797.214 1613.79 859.443 C 1613.81 866.439 1550.21 865.087 1543.36 862.833 C 1540.98 859.658 1541.46 692.831 1541.51 672.562 C 1533.96 661.953 1538.34 662.313 1533.53 653.926 C 1523.17 635.843 1511.44 630.88 1493.24 625.341 C 1483.12 622.093 1465.78 624.022 1455.56 628.319 C 1444.81 632.709 1433.07 642.014 1427.67 652.345 C 1425.7 656.11 1426.11 655.757 1423 659.084 C 1420.76 686.285 1421.48 713.502 1421.19 740.868 C 1420.76 781.349 1419.93 820.649 1421.57 861.112 C 1411.85 864.838 1358.39 866.628 1350.43 861.271 C 1349.52 853.541 1349.9 839.676 1349.74 831.403 C 1349.41 803.44 1349.34 775.474 1349.53 747.51 L 1349.55 693.489 C 1349.56 686.388 1348.71 670.166 1350.11 664.099 C 1355.86 639.293 1364.95 621.743 1380.36 602.242 C 1405.38 570.584 1428.12 566.659 1462.86 555.316 z" fill="rgb(35,39,12)" transform="translate(0,0)"></path>
<path d="M 2153.5 555.396 C 2210.51 549.783 2258.3 575.702 2285.46 624.131 C 2286.02 625.13 2286.24 631.741 2286.4 633.338 C 2288.17 635.929 2288.41 636.156 2290.73 637.929 C 2293.75 640.245 2291.26 649.056 2292.72 652.553 C 2293.63 654.733 2295.92 657.861 2296.94 659.561 C 2298.17 661.62 2298.47 670.269 2298.39 672.506 C 2297.55 694.927 2298.45 727.578 2297.82 749.027 C 2297.27 767.819 2299.77 852.042 2296.87 862.187 C 2295.84 862.701 2294.94 863.127 2293.81 863.383 C 2285.87 865.183 2234.15 865.647 2229.83 862.323 C 2228.12 861.005 2227.32 859.411 2227.17 857.257 C 2226.79 851.653 2228.86 845.867 2228.72 840.172 C 2227.95 808.464 2228 776.809 2227.96 745.084 C 2227.92 716.89 2228.18 689.57 2224.98 661.509 C 2219.41 655.138 2221.66 654.541 2218.38 649.474 C 2213.18 641.446 2199.59 629.308 2190.03 626.952 C 2186.6 626.108 2184.69 625.584 2181.09 624.382 C 2162.54 623.738 2151.96 622.539 2134.92 632.31 C 2125.51 637.705 2115.2 647.766 2111.8 658.378 C 2110.12 663.647 2111.59 662.434 2107.16 667.079 L 2106.31 667.953 C 2104.75 714.692 2107.41 765.442 2106.02 812.543 C 2105.73 822.438 2107.11 853.681 2105.92 860.929 C 2104.78 861.839 2103.93 862.325 2102.51 862.725 C 2092.64 865.488 2047.45 866.423 2039.2 861.38 C 2037.59 860.396 2037.58 860.094 2037.32 858.223 C 2035.82 847.584 2038.09 834.3 2038.02 823.404 C 2037.85 797.55 2032.58 662.128 2042.57 650.315 C 2045.96 646.306 2045.19 644.865 2045.67 639.956 C 2046.03 636.193 2047.74 634.986 2050.51 632.658 C 2052.91 630.643 2051.76 626.068 2053.41 623.23 C 2068.8 596.697 2093.94 574.262 2122.71 563.735 C 2132.64 560.102 2143.26 558.031 2153.5 555.396 z" fill="rgb(35,39,12)" transform="translate(0,0)"></path>
<path d="M 1639.89 558.209 C 1656.23 557.774 1677.67 559.207 1695.21 559.04 C 1742.72 558.416 1790.24 558.162 1837.76 558.279 C 1852.21 558.255 1895.02 556.937 1906.34 560.044 C 1907.28 564.963 1904.77 590.783 1905.08 597.971 C 1905.45 606.591 1906.41 616.906 1906.59 625.37 C 1900.44 634.34 1823.51 626.753 1805.47 630.947 C 1806.85 641.047 1806.04 666.116 1806.03 677.444 L 1806.01 768.75 C 1805.98 779.425 1806.96 859.452 1804.66 862.822 C 1798.89 864.883 1747.95 864.974 1741.49 862.96 C 1738.51 862.031 1739.71 814.454 1739.69 806.149 L 1739.74 677.288 C 1739.76 668.991 1741.66 638.47 1739.04 632.364 C 1735.74 624.646 1647.65 634.239 1633.99 628.476 C 1632.84 627.99 1630.85 626.988 1630.47 625.704 C 1628.81 620.181 1631.48 602.431 1631.45 595.12 C 1631.43 587.184 1629.98 579.168 1630.29 571.257 C 1630.4 568.479 1630.64 565.473 1631.84 562.937 C 1633.18 560.128 1637.16 559.196 1639.89 558.209 z" fill="rgb(35,39,12)" transform="translate(0,0)"></path>
<path d="M 2614.52 557.466 C 2626.22 557.733 2667.03 556.246 2674.63 559.595 C 2677.48 564.822 2676.19 613.981 2676.18 623.546 L 2676.17 742.88 C 2676.16 752.516 2675.33 785.562 2677.81 792.509 C 2689.68 799.703 2810.71 788.843 2830.06 797.299 C 2833.19 801.198 2832.48 850.624 2832.5 860.024 C 2830.5 863.322 2830.96 862.335 2826.74 864.258 C 2770.76 863.607 2714.47 864.398 2658.46 864.044 C 2641.22 863.935 2622.77 865.374 2605.93 862.271 C 2602.97 861.726 2604.25 848.254 2603.82 845.433 C 2603.43 753.302 2603.91 661.17 2603.48 569.037 C 2603.46 565.91 2603.3 562.734 2604.73 559.934 C 2607.85 557.671 2610.6 557.854 2614.52 557.466 z" fill="rgb(35,39,12)" transform="translate(0,0)"></path>
<path d="M 2331.32 683.304 C 2343.61 682.425 2372.03 683.49 2386.16 683.463 L 2478.86 683.467 C 2485.85 683.473 2511.97 682.885 2516.69 684.102 C 2520.97 691.296 2515.5 728.424 2518.44 737.746 C 2519.41 740.833 2520.12 739.339 2519.42 743.424 C 2518.03 745.207 2516.47 746.754 2513.97 746.866 C 2482.25 748.282 2450.06 746.346 2418.24 747.072 C 2412.84 747.195 2408.76 747.866 2405.89 752.261 C 2407.66 762.145 2427.15 785.131 2436.89 787.736 C 2466.74 795.714 2503.97 793.454 2535.25 793.27 C 2543.7 793.725 2562.66 790.754 2568.04 796.386 C 2569.84 805.418 2570.86 853.037 2568.51 861.774 C 2566.25 863.736 2562.38 864.348 2559.42 864.213 C 2527.75 862.773 2492.27 866.111 2461.04 863.686 C 2426.94 860.749 2394.75 846.645 2369.48 823.559 C 2362.38 816.955 2341.51 793.49 2339.5 783.404 C 2337.45 773.14 2331.94 769.801 2328.66 760.174 C 2326.85 754.875 2327.95 746.99 2327.13 741.31 C 2321.62 728.304 2317.57 691.979 2331.32 683.304 z" fill="rgb(35,39,12)" transform="translate(0,0)"></path>
<path d="M 1313 861.905 C 1311.03 862.494 1309.05 863.043 1307.03 863.446 C 1294.53 865.941 1278.42 864.118 1265.57 864.107 C 1218.61 864.066 1172.9 867.366 1131.64 840.087 C 1102.65 820.922 1075.13 782.731 1068.36 747.831 C 1067.04 741.06 1066.35 687.656 1069.95 683.228 C 1071.88 680.864 1078.53 680.841 1081.48 680.728 C 1111.23 679.592 1141.66 681.086 1171.5 681.029 C 1198.21 680.979 1226.08 679.133 1252.68 680.983 C 1254.98 681.143 1257.3 681.518 1258.95 683.28 C 1261.89 686.409 1261.03 729.329 1260.82 736.363 C 1260.76 738.401 1260.81 743.488 1259.49 745.029 C 1253.34 752.225 1156.08 741.196 1146.11 750.576 C 1145.35 753.932 1145.26 752.285 1146.71 755.656 C 1152.83 758.963 1152.63 758.422 1152.47 764.981 C 1153.17 766.195 1173.52 785.662 1175.45 786.475 C 1204.6 798.74 1246.16 792.847 1277.49 793.891 C 1289.2 794.281 1298.85 791.871 1310.27 795.025 C 1309.85 795.704 1309.44 796.384 1309.02 797.063 C 1308.96 798.52 1305.33 799.08 1305.34 799.4 C 1306.07 816.256 1302.89 835.31 1307.69 851.463 C 1309.92 858.959 1310.15 855.382 1313 861.905 z" fill="rgb(35,39,12)" transform="translate(0,0)"></path>
<path d="M 1941.33 559.3 C 1944.55 558.885 1954.75 559.331 1958.2 559.83 C 1970.26 561.577 1994.06 556.851 2004.07 561.947 C 2005.56 578.624 2004.26 619.216 2004.26 637.789 L 2004.24 791.904 C 2004.17 814.783 2004.75 838.265 2004.37 861.034 C 2004.34 862.668 2001.51 863.753 2000.25 864.403 C 1989.06 864.029 1945.24 865.322 1938.53 862.803 C 1936.15 853.912 1936.83 811.948 1936.77 799.903 C 1936.42 748.116 1936.93 696.348 1936.68 644.562 C 1936.58 623.971 1932.69 603.208 1935.26 582.078 C 1935.92 576.646 1930.97 569.647 1933.26 562.801 C 1936.34 559.738 1936.72 560.41 1941.33 559.3 z" fill="rgb(35,39,12)" transform="translate(0,0)"></path>
<path d="M 1320.13 625 L 1318.91 627.674 C 1316.94 629.007 1315.22 629.634 1312.85 629.921 C 1303.65 631.036 1293.43 630.003 1284.11 629.984 C 1255.66 629.926 1225.41 628.128 1197.15 630.337 C 1184.37 631.336 1175.37 641.068 1163.59 644.508 C 1162.09 644.946 1086.78 647.421 1082.66 647.117 C 1079.4 644.395 1080.03 645.66 1078.81 642.013 C 1080.13 637.399 1083.88 636.983 1085.15 634.413 C 1103.96 596.191 1147.7 564.946 1190.38 560.548 C 1230.09 556.457 1272.15 558.45 1312.22 558.206 C 1314.74 558.19 1317.11 559.833 1318.97 561.386 C 1316.27 565.374 1313.65 563.098 1311.59 564.907 C 1311.05 565.384 1311.29 586.014 1311.52 586.628 C 1311.95 586.107 1312.18 583.892 1312.26 583.281 L 1312.7 583.358 L 1312.49 583.249 C 1314.36 588.563 1313.49 606.332 1313.51 612.961 C 1314.63 614.749 1315.28 615.893 1316.65 617.653 C 1319.8 621.728 1314.54 621.802 1320.13 625 z" fill="rgb(35,39,12)" transform="translate(0,0)"></path>
<path d="M 2458.37 558.375 C 2478.04 557.587 2498.83 558.151 2518.6 557.901 C 2528.92 557.771 2563.19 556.042 2570.25 561.042 C 2571.8 566.285 2567.97 568.504 2568.72 575.524 C 2570.35 590.952 2570.36 610.414 2572.84 625.285 C 2570 626.594 2567.31 628.403 2564.65 630.068 C 2531.12 629.124 2496.68 628.552 2463.08 629.575 C 2453.71 629.86 2447.51 632.227 2438.73 633.509 C 2435.26 635.769 2424.28 644.602 2421.81 644.509 C 2410.24 644.073 2340.91 648.632 2334.8 645.016 L 2334.41 643.264 C 2336.87 637.793 2341.56 634.991 2343.78 630.896 C 2362.31 596.767 2393.31 571.586 2431.43 562.842 C 2440.19 560.832 2449.22 560.271 2458.37 558.375 z" fill="rgb(35,39,12)" transform="translate(0,0)"></path>
<path d="M 2118.48 926.219 C 2144.67 926.305 2148.78 922.747 2167.95 938.574 C 2167.84 939.401 2166.84 945.934 2166.91 946.345 C 2167.73 951.347 2159.36 952.716 2160 957.125 C 2160.37 959.647 2165.82 962.88 2167.83 964.476 C 2167.96 972.539 2169.94 980.19 2163.38 984.893 C 2153.52 993.721 2144.5 988.914 2132.49 990.476 C 2122.93 991.719 2119.23 990.082 2110.88 987.049 C 2111.04 971.632 2109.81 945.17 2112 929.562 C 2112.17 928.368 2117.04 926.829 2118.48 926.219 z M 2154.73 981.011 C 2160.51 978.044 2158.77 972.519 2159.23 966.546 C 2144.31 962.402 2143.43 960.075 2126.98 960.178 C 2123.81 965.761 2124.99 975.349 2124.64 983.489 C 2136.97 983.528 2142.55 984.264 2154.73 981.011 z M 2150.33 936.181 C 2152.48 935.799 2156.78 935.985 2156.99 935.782 C 2159.93 932.997 2145.91 928.333 2143.51 928.438 C 2139.65 928.607 2138.42 927.248 2135.56 930.425 C 2138.4 931.892 2141.8 932.042 2143.91 933.422 C 2136.41 934.615 2131 929.781 2125.92 935.443 C 2124.17 937.39 2124.57 951.995 2126.38 953.173 C 2131.34 956.39 2148.58 956.972 2152.13 951.468 C 2154.17 948.294 2154.84 939.887 2150.33 936.181 z M 2150.93 988.655 C 2152.23 988.139 2157.71 986.762 2157.29 984.787 C 2156.24 983.661 2153.24 983.359 2151.76 983.256 C 2143.88 984.515 2139.29 986.266 2150.93 988.655 z M 2151.76 960.867 C 2157.16 960.37 2154.24 954.751 2149.75 956.168 C 2148.36 956.761 2145.13 957.873 2143.99 958.547 C 2144.31 958.526 2144.1 958.579 2144.64 958.254 L 2144.99 959.006 C 2147.6 959.574 2149.27 960.124 2151.76 960.867 z" fill="rgb(71,81,63)" fill-opacity="0.564706" transform="translate(0,0)"></path>
<path d="M 2126.98 960.178 C 2143.43 960.075 2144.31 962.402 2159.23 966.546 C 2158.77 972.519 2160.51 978.044 2154.73 981.011 C 2142.55 984.264 2136.97 983.528 2124.64 983.489 C 2124.99 975.349 2123.81 965.761 2126.98 960.178 z" fill="rgb(253,253,253)" fill-opacity="0.00784314" transform="translate(0,0)"></path>
<path d="M 2143.91 933.422 C 2141.8 932.042 2138.4 931.892 2135.56 930.425 C 2138.42 927.248 2139.65 928.607 2143.51 928.438 C 2145.91 928.333 2159.93 932.997 2156.99 935.782 C 2156.78 935.985 2152.48 935.799 2150.33 936.181 C 2147.33 935.291 2146.71 934.928 2143.91 933.422 z" fill="rgb(71,81,63)" fill-opacity="0.729412" transform="translate(0,0)"></path>
<path d="M 2151.76 983.256 C 2153.24 983.359 2156.24 983.661 2157.29 984.787 C 2157.71 986.762 2152.23 988.139 2150.93 988.655 C 2139.29 986.266 2143.88 984.515 2151.76 983.256 z" fill="rgb(75,84,66)" fill-opacity="0.85098" transform="translate(0,0)"></path>
<path d="M 2149.75 956.168 C 2154.24 954.751 2157.16 960.37 2151.76 960.867 C 2149.27 960.124 2147.6 959.574 2144.99 959.006 L 2144.64 958.254 C 2144.1 958.579 2144.31 958.526 2143.99 958.547 C 2145.13 957.873 2148.36 956.761 2149.75 956.168 z" fill="rgb(71,81,63)" fill-opacity="0.752941" transform="translate(0,0)"></path>
<path d="M 2532.38 925.363 C 2549.39 925.844 2543.83 930.209 2549.25 938.817 C 2551.99 941.033 2552.14 941.614 2552.74 945.025 C 2553.09 947.004 2559.9 951.457 2561.57 952.686 C 2562.86 956.179 2561.34 956.479 2564.89 956.216 C 2567.78 956.003 2569.32 967.916 2573.34 967.344 C 2573.98 967.193 2577.74 967.745 2577.86 967.413 C 2579.48 962.799 2584.05 954.288 2579.5 950.34 C 2577.35 948.483 2575.78 950.766 2574.64 949.579 C 2571.96 947.584 2573.38 939.258 2572.25 937.447 C 2563.14 922.858 2591.01 919.783 2588.04 934.462 C 2586.45 942.336 2586.83 953.839 2587.95 961.505 C 2588.45 964.906 2589.06 970.281 2586.52 973.196 C 2581.3 978.721 2586.78 981.712 2590.63 985.71 C 2585.81 994.743 2573.74 991.58 2568.99 984.997 C 2563.77 977.772 2557.39 952.856 2545.1 959.994 C 2536.89 964.76 2544.53 989.654 2540.97 991.39 C 2518.78 1002.21 2532.58 956.613 2528.18 949.949 C 2526.79 950.629 2527.67 956.604 2525.88 956.147 C 2523.85 952.209 2525.41 947.305 2527.01 943.523 C 2532.12 931.468 2516.95 928.811 2532.38 925.363 z M 2570.38 970.917 C 2565.2 978.768 2574.2 978.539 2573.24 981.526 C 2571.29 987.616 2575.7 987.213 2585.73 987.758 L 2585.24 986.551 C 2584.22 983.439 2580.17 984.494 2580.3 981.981 C 2580.82 972.126 2581.11 972.059 2570.38 970.917 z M 2543.05 932.67 C 2535.64 923.596 2526.74 930.56 2536.73 944.083 C 2535.55 944.233 2532.95 944.28 2531.99 944.744 C 2530.89 946.442 2530.42 962.721 2531.41 964.795 L 2531.61 964.92 C 2541.7 959.786 2535.86 955.721 2536.8 944.913 L 2537.75 945.01 C 2539.07 946.913 2545.26 953.783 2547.48 954.209 C 2546.75 954.07 2555.17 953.125 2551.52 949.376 C 2550.16 947.978 2543.94 938.921 2545.19 936.487 C 2545.77 935.371 2543.67 933.268 2543.05 932.67 z M 2537.57 977.05 C 2538.4 970.102 2540.04 967.161 2532.65 966.211 C 2531.68 972.629 2530.94 975.086 2537.57 977.05 z M 2538.2 988.361 C 2538.92 987.366 2539.05 986.054 2538.53 984.94 C 2538 983.825 2536.91 983.084 2535.68 983.008 C 2534.46 982.931 2533.28 983.531 2532.62 984.572 C 2531.65 986.109 2532.08 988.14 2533.58 989.162 C 2535.08 990.185 2537.13 989.83 2538.2 988.361 z" fill="rgb(120,127,113)" fill-opacity="0.129412" transform="translate(0,0)"></path>
<path d="M 2570.38 970.917 C 2581.11 972.059 2580.82 972.126 2580.3 981.981 C 2580.17 984.494 2584.22 983.439 2585.24 986.551 L 2585.73 987.758 C 2575.7 987.213 2571.29 987.616 2573.24 981.526 C 2574.2 978.539 2565.2 978.768 2570.38 970.917 z" fill="rgb(71,81,63)" fill-opacity="0.278431" transform="translate(0,0)"></path>
<path d="M 2543.05 932.67 C 2543.67 933.268 2545.77 935.371 2545.19 936.487 C 2543.94 938.921 2550.16 947.978 2551.52 949.376 C 2555.17 953.125 2546.75 954.07 2547.48 954.209 C 2545.26 953.783 2539.07 946.913 2537.75 945.01 C 2543.6 941.897 2538.31 936.479 2543.05 932.67 z" fill="rgb(71,81,63)" fill-opacity="0.407843" transform="translate(0,0)"></path>
<path d="M 2536.73 944.083 C 2526.74 930.56 2535.64 923.596 2543.05 932.67 C 2538.31 936.479 2543.6 941.897 2537.75 945.01 L 2536.8 944.913 L 2536.73 944.083 z" fill="rgb(75,84,66)" fill-opacity="0.631373" transform="translate(0,0)"></path>
<path d="M 2536.73 944.083 L 2536.8 944.913 C 2535.86 955.721 2541.7 959.786 2531.61 964.92 L 2531.41 964.795 C 2530.42 962.721 2530.89 946.442 2531.99 944.744 C 2532.95 944.28 2535.55 944.233 2536.73 944.083 z" fill="rgb(75,84,66)" fill-opacity="0.0862745" transform="translate(0,0)"></path>
<path d="M 2532.65 966.211 C 2540.04 967.161 2538.4 970.102 2537.57 977.05 C 2530.94 975.086 2531.68 972.629 2532.65 966.211 z" fill="rgb(75,84,66)" fill-opacity="0.282353" transform="translate(0,0)"></path>
<path d="M 2532.62 984.572 C 2533.28 983.531 2534.46 982.931 2535.68 983.008 C 2536.91 983.084 2538 983.825 2538.53 984.94 C 2539.05 986.054 2538.92 987.366 2538.2 988.361 C 2537.13 989.83 2535.08 990.185 2533.58 989.162 C 2532.08 988.14 2531.65 986.109 2532.62 984.572 z" fill="rgb(75,84,66)" fill-opacity="0.478431" transform="translate(0,0)"></path>
<path d="M 1221.04 982.008 C 1223.59 968.164 1222.74 954.922 1224.52 940.996 C 1225.04 936.874 1222.06 929.158 1226.97 926.772 C 1230.58 925.012 1238.11 924.492 1240.46 928.597 C 1240.86 929.282 1239.54 932.636 1239.41 933.518 L 1239 936.543 C 1239.54 938.257 1240.78 954.281 1240.28 955.493 C 1239 958.673 1238.76 982.097 1237.6 982.422 C 1228.43 984.98 1224.98 992.325 1215.83 991.241 C 1207.11 991.076 1188.35 992.094 1185.99 980.502 C 1184.73 972.504 1181.29 976.654 1181.16 970.552 C 1177.41 959.792 1177.01 951.954 1179.22 940.506 C 1180.35 934.675 1177.67 931.454 1180.61 926.047 C 1197.14 925.135 1196.08 924.652 1196.81 937.005 C 1197.05 940.968 1197.36 945.579 1197.66 949.303 C 1197.85 951.727 1199.1 954.396 1198.73 957.477 C 1200.9 963.764 1199.49 970.274 1200.05 975.93 C 1200.02 975.676 1203.51 981.867 1203.67 981.933 C 1207.48 983.436 1216.69 982.273 1221.04 982.008 z M 1219.87 989.729 C 1223.12 989.384 1224.01 988.439 1225.5 985.526 C 1226.98 982.649 1236.5 983.715 1235.66 978.648 C 1233.86 976.782 1226.17 976.871 1224.84 977.425 C 1224.18 978.856 1224.78 979.612 1225.29 981.04 C 1226.64 984.846 1218.58 983.37 1215.99 983.458 C 1214.44 983.646 1212.9 983.809 1211.35 983.946 C 1208.12 983.817 1201.93 984.754 1199.47 981.801 C 1190.29 970.797 1185.73 983.236 1197.49 986.977 C 1206.52 989.849 1209.6 990.383 1219.87 989.729 z M 1190.31 932.195 C 1192.16 926.488 1188.89 927.599 1184.12 926.989 C 1185.35 932.521 1184.38 934.987 1190.31 932.195 z" fill="rgb(75,84,66)" fill-opacity="0.254902" transform="translate(0,0)"></path>
<path d="M 1219.87 989.729 C 1209.6 990.383 1206.52 989.849 1197.49 986.977 C 1185.73 983.236 1190.29 970.797 1199.47 981.801 C 1201.93 984.754 1208.12 983.817 1211.35 983.946 C 1209.78 984.967 1204.81 986.748 1204.75 987.012 C 1205.9 989.533 1218.1 988.402 1220.77 987.773 L 1219.87 989.729 z" fill="rgb(71,81,63)" fill-opacity="0.584314" transform="translate(0,0)"></path>
<path d="M 1215.99 983.458 C 1218.58 983.37 1226.64 984.846 1225.29 981.04 C 1224.78 979.612 1224.18 978.856 1224.84 977.425 C 1226.17 976.871 1233.86 976.782 1235.66 978.648 C 1236.5 983.715 1226.98 982.649 1225.5 985.526 C 1224.01 988.439 1223.12 989.384 1219.87 989.729 L 1220.77 987.773 C 1223.13 984.392 1219.16 984.594 1215.99 983.458 z" fill="rgb(71,81,63)" fill-opacity="0.478431" transform="translate(0,0)"></path>
<path d="M 1211.35 983.946 C 1212.9 983.809 1214.44 983.646 1215.99 983.458 C 1219.16 984.594 1223.13 984.392 1220.77 987.773 C 1218.1 988.402 1205.9 989.533 1204.75 987.012 C 1204.81 986.748 1209.78 984.967 1211.35 983.946 z" fill="rgb(71,81,63)" fill-opacity="0.811765" transform="translate(0,0)"></path>
<path d="M 1184.12 926.989 C 1188.89 927.599 1192.16 926.488 1190.31 932.195 C 1184.38 934.987 1185.35 932.521 1184.12 926.989 z" fill="rgb(75,84,66)" fill-opacity="0.396078" transform="translate(0,0)"></path>
<path d="M 501.65 714.732 C 503.863 715.165 507.157 714.966 508.47 715.84 L 508.503 715.741 C 509.662 718.17 491.087 724.271 491.811 728.087 C 485.052 732.218 476.06 739.378 469.739 742.55 C 466.489 745.019 460.66 747.733 456.85 750.247 C 437.145 758.391 401.445 785.43 383.783 798.465 C 377.307 803.245 360.965 821.926 354.116 824.735 C 361.947 814.113 369.536 805.964 379.235 796.908 C 381.274 795.004 386.048 790.733 387.04 788.5 C 386.272 785.06 386.082 784.687 383.793 782.006 C 375.182 782.043 378.587 787.994 365.783 788.593 C 373.014 782.189 380.811 778.5 386.677 772.621 L 388.507 773.556 C 388.404 776.062 387.686 778.297 387.675 779.574 C 388.225 780.021 398.056 782.214 399.039 782.042 C 402.043 778.947 399.117 778.971 400.777 775.589 C 402.444 771.877 411.63 772.416 411.19 768.568 C 410.661 763.941 400.82 766.487 397.031 766.392 C 417.82 750.019 475.647 723.607 501.65 714.732 z M 432.823 756.75 C 438.499 753.185 428.054 751.799 426.936 751.694 L 426.208 752.787 C 422.362 757.714 427.206 755.608 432.823 756.75 z" fill="rgb(253,253,253)" fill-opacity="0.141176" transform="translate(0,0)"></path>
<path d="M 426.936 751.694 C 428.054 751.799 438.499 753.185 432.823 756.75 C 427.206 755.608 422.362 757.714 426.208 752.787 L 426.936 751.694 z" fill="rgb(253,253,253)" fill-opacity="0.227451" transform="translate(0,0)"></path>
<path d="M 1486.77 925.5 C 1489.44 924.824 1492.35 925.296 1495.14 925.536 C 1507.46 933.954 1499.68 930.138 1512.34 931.7 L 1512.67 932.986 C 1508.78 935.55 1505.14 932.05 1502.44 934.291 C 1505.17 936.71 1507.33 936.332 1511.32 936.753 C 1499.98 943.395 1482.57 928.377 1474.65 937.874 C 1473.91 943.043 1479.84 944.023 1478.29 949.904 C 1473.87 966.633 1488.13 992.901 1465.03 992.477 C 1462.46 991.623 1458.47 990.815 1456.99 989.084 C 1463.05 972.48 1458.79 968.817 1459.09 952.971 C 1459.57 927.499 1433.93 943.736 1427.21 936.287 C 1429.29 921.623 1474.54 925.437 1486.77 925.5 z M 1444.27 927.104 L 1442.44 928.751 C 1441.72 929.41 1440.38 930.551 1439.99 931.402 C 1440.88 935.326 1447.38 935.258 1450.3 933.295 C 1457.48 932.789 1463.06 930.341 1463 937.998 C 1463 940.234 1463.9 942.376 1465.48 943.953 C 1470.71 949.067 1470.71 938.56 1470.14 935.748 C 1471.87 934.852 1473.43 934.066 1475.22 933.273 C 1476.64 933.375 1487.19 932.58 1486.99 932.48 C 1490.57 934.234 1494.54 928.24 1491.48 927.806 C 1481.66 926.414 1453.2 925.408 1444.27 927.104 z" fill="rgb(75,84,66)" fill-opacity="0.164706" transform="translate(0,0)"></path>
<path d="M 1444.27 927.104 C 1453.2 925.408 1481.66 926.414 1491.48 927.806 C 1494.54 928.24 1490.57 934.234 1486.99 932.48 C 1487.19 932.58 1476.64 933.375 1475.22 933.273 C 1477.81 931.228 1484.76 930.254 1488.52 929.416 C 1481.04 928.597 1474.64 925.867 1466.3 928.342 C 1464.18 928.97 1468.86 933.922 1470.14 935.748 C 1470.71 938.56 1470.71 949.067 1465.48 943.953 C 1463.9 942.376 1463 940.234 1463 937.998 C 1463.06 930.341 1457.48 932.789 1450.3 933.295 C 1450.35 932.985 1450.4 931.894 1450.82 931.61 C 1456.61 927.775 1447.86 927.64 1445.3 927.262 L 1444.27 927.104 z" fill="rgb(71,81,63)" fill-opacity="0.384314" transform="translate(0,0)"></path>
<path d="M 1470.14 935.748 C 1468.86 933.922 1464.18 928.97 1466.3 928.342 C 1474.64 925.867 1481.04 928.597 1488.52 929.416 C 1484.76 930.254 1477.81 931.228 1475.22 933.273 C 1473.43 934.066 1471.87 934.852 1470.14 935.748 z" fill="rgb(71,81,63)" fill-opacity="0.596078" transform="translate(0,0)"></path>
<path d="M 1450.3 933.295 C 1447.38 935.258 1440.88 935.326 1439.99 931.402 C 1440.38 930.551 1441.72 929.41 1442.44 928.751 L 1444.27 927.104 L 1445.3 927.262 C 1447.86 927.64 1456.61 927.775 1450.82 931.61 C 1450.4 931.894 1450.35 932.985 1450.3 933.295 z" fill="rgb(71,81,63)" fill-opacity="0.580392" transform="translate(0,0)"></path>
<path d="M 2237.33 934.663 C 2246.03 935.074 2247.73 930.92 2255.84 936.96 C 2262.57 943.289 2266.66 942.76 2267.1 951.023 C 2267.37 955.907 2267.88 969.455 2264.03 974.007 C 2258.95 978.105 2255.51 974.895 2254.01 983.112 C 2246.57 983.188 2241.35 983.456 2233.83 982.934 C 2234.9 975.531 2227.31 975.232 2223.83 972.263 C 2220.19 969.163 2221.51 949.954 2221.61 945.283 C 2232.12 940.741 2229.07 941.525 2237.33 934.663 z" fill="rgb(253,253,253)" fill-opacity="0.0196078" transform="translate(0,0)"></path>
<path d="M 1936.83 926.265 C 1940.01 926.29 1942.45 925.749 1945.75 927.563 C 1952.13 931.068 1958.3 926.249 1965.5 927.393 C 1969.08 927.963 1970.26 928.179 1973.54 928.929 C 1974.21 929.081 1981.68 929.336 1980.8 931.571 C 1979.14 932.911 1975.42 930.469 1976.38 933.975 C 1976.49 934.363 1976.77 934.683 1977.13 934.846 C 1977.4 934.965 1980.81 936.635 1978.59 937.135 C 1974.68 938.016 1969.47 936.939 1965.45 936.285 C 1960.01 935.369 1952.62 932.363 1947.28 934.636 C 1945.89 935.227 1941.58 938.646 1943.19 940.471 C 1947.92 944.153 1943.75 948.792 1944.43 950.779 C 1947 958.302 1956.67 953.83 1961.98 953.784 C 1964.32 953.764 1964.33 953.297 1965.49 953.445 C 1967.31 953.677 1973.11 952.865 1973.86 954.503 C 1973.65 955.156 1972.92 954.944 1972.38 955.219 L 1972.34 955.421 C 1973.47 957.35 1973.76 962.203 1971.72 962.977 C 1968.69 964.125 1962.26 961.422 1958.53 961.277 C 1956.1 961.182 1953.81 959.573 1950.5 960.586 C 1947.73 961.434 1946.91 963.27 1945.63 965.345 C 1945.52 968.243 1945.66 971.692 1945.52 974.502 C 1945.21 980.292 1941.3 977.936 1940.5 978.609 C 1940.36 979.086 1940.29 979.983 1940.59 980.319 C 1941.59 980.635 1942.59 980.951 1943.59 981.267 C 1952.16 984.265 1963.4 982.019 1972.5 982.313 C 1974.19 981.485 1976.75 982.393 1978.5 982.469 C 1990.06 982.972 1981.23 992.939 1973.99 988.872 C 1975.35 989.633 1959.22 988.809 1960.54 988.708 C 1952.1 989.357 1944.25 990.818 1936.02 990.904 C 1930.7 990.987 1927.11 988.899 1928.96 983.533 C 1930.81 978.18 1928.52 971.162 1929.18 965.548 C 1929.12 954.129 1928.66 942.401 1930 930.916 C 1930.22 929.055 1934.83 927.368 1936.83 926.265 z" fill="rgb(71,81,63)" fill-opacity="0.0862745" transform="translate(0,0)"></path>
<path d="M 2207.59 967.652 C 2207.43 964.643 2206.48 949.815 2207.97 949.031 C 2211.97 946.93 2211.27 940.884 2214.5 938.942 C 2222.46 934.162 2220.87 931.004 2230.94 928.045 C 2229.19 929.282 2227.77 929.916 2226.79 931.891 C 2225.35 934.856 2221.77 937.311 2225.58 939.01 C 2226.74 942.2 2231.48 936.336 2232.17 935.253 C 2233.69 934.971 2235.74 934.823 2237.33 934.663 C 2229.07 941.525 2232.12 940.741 2221.61 945.283 C 2221.51 949.954 2220.19 969.163 2223.83 972.263 C 2227.31 975.232 2234.9 975.531 2233.83 982.934 C 2231.31 980.123 2223.26 971.598 2222.76 981.519 C 2222.57 985.332 2237.29 988.614 2242.59 989.184 C 2244.52 989.054 2246.06 989.062 2247.99 989.084 C 2252.15 988.622 2265.83 983.139 2265.56 978.98 C 2255.79 975.626 2259.05 981.038 2254.01 983.112 C 2255.51 974.895 2258.95 978.105 2264.03 974.007 C 2267.88 969.455 2267.37 955.907 2267.1 951.023 C 2266.66 942.76 2262.57 943.289 2255.84 936.96 L 2257.96 936.693 C 2264.86 936.402 2262.47 936.479 2260.92 930.911 L 2260.73 929.486 C 2268.3 932.161 2267.37 938.029 2274.08 940.367 C 2275.01 940.569 2280.46 951.544 2280.47 950.963 C 2280.2 965.591 2283.48 966.503 2273.39 977.373 C 2266.16 985.153 2265.83 983.404 2257.46 988.847 L 2254.85 990.567 C 2248.47 990.741 2223.32 992.561 2218.34 981.517 C 2218.29 981.41 2218.19 979.6 2218.06 979.532 C 2213 976.873 2209.91 971.058 2207.59 967.652 z" fill="rgb(71,81,63)" fill-opacity="0.45098" transform="translate(0,0)"></path>
<path d="M 2642.84 926.494 C 2653.79 925.992 2664.66 926.723 2676.02 926.212 C 2689.37 925.612 2683.45 939.934 2670.99 934.009 C 2670.31 933.683 2659.15 932.05 2657.66 931.865 C 2655.47 933.051 2646.6 936.863 2647.84 940.38 C 2652.41 953.374 2640.33 947.301 2654.54 955.19 L 2657.49 956.836 C 2659.53 956.086 2662.59 954.419 2664.51 954.011 C 2683.33 950.017 2686.09 962.288 2665.5 960.855 C 2655.76 960.177 2655.64 959.062 2648.33 965.39 C 2648.22 966.449 2647.9 970.194 2648.26 970.488 C 2649.53 971.534 2648.16 979.797 2647.94 979.506 C 2654.53 988.355 2672.61 980.549 2681.53 983.587 C 2686.37 985.237 2683.15 990.609 2678.53 990.642 C 2671.16 990.694 2663.5 990.399 2656.19 990.631 C 2648.48 990.876 2632.72 992.7 2638.24 979.994 C 2638.54 979.304 2635.37 967.633 2638.67 965.614 C 2642.3 963.563 2639.84 957.98 2638.95 955.019 C 2636.03 945.284 2633.58 932.974 2642.84 926.494 z M 2679.67 989.212 C 2681.11 986.438 2680.33 983.666 2677.53 984.217 C 2670.57 985.585 2662.12 986.038 2655.02 985.378 C 2652.72 985.164 2647.87 982.973 2644.2 982.397 C 2643.13 983.688 2640.47 987.861 2643.42 988.124 C 2655.45 989.199 2667.3 988.043 2679.67 989.212 z" fill="rgb(71,81,63)" fill-opacity="0.670588" transform="translate(0,0)"></path>
<path d="M 2644.2 982.397 C 2647.87 982.973 2652.72 985.164 2655.02 985.378 C 2662.12 986.038 2670.57 985.585 2677.53 984.217 C 2680.33 983.666 2681.11 986.438 2679.67 989.212 C 2667.3 988.043 2655.45 989.199 2643.42 988.124 C 2640.47 987.861 2643.13 983.688 2644.2 982.397 z" fill="rgb(75,84,66)" fill-opacity="0.929412" transform="translate(0,0)"></path>
<path d="M 1819.38 928.757 C 1821.61 931.612 1823.31 934.837 1826.11 937.52 C 1826.97 938.346 1827.33 946.343 1827.44 946.447 C 1833.61 951.883 1829.63 955.569 1833.32 961.668 C 1836.35 966.661 1834.29 965.734 1839.7 965.076 C 1840.93 964.989 1841.33 970.104 1843.85 968.294 C 1845.57 963.82 1850.67 961.413 1851.73 958.436 C 1854.59 950.432 1857.24 951.415 1859.66 942.08 C 1860.46 939.002 1870.36 918.472 1877.72 926.03 C 1879.24 927.588 1878.08 944.498 1876.64 948.552 C 1876.54 948.562 1876.45 948.573 1876.35 948.584 C 1875.63 947.554 1876.56 945.058 1875.58 943.445 L 1875.43 943.515 C 1874.68 947.329 1874 978.637 1875.11 980.756 L 1875.51 980.663 C 1876.15 979.636 1876.33 977.539 1877.39 976.981 C 1878.29 977.623 1878.27 978.769 1877.97 979.691 C 1877.49 981.184 1880.93 982.849 1882.16 983.837 C 1866.23 982.282 1869.04 991.137 1882.01 991.678 C 1878.08 992.612 1870.37 993.599 1868.49 990.157 C 1863.39 980.83 1873.25 980.621 1872.32 981.406 C 1872.53 980.664 1871.91 949.775 1871.79 949.429 L 1871.55 949.356 C 1870.38 949.813 1869.44 953.343 1868.29 952.891 C 1867.35 951.096 1869.15 949.556 1867.94 945.697 C 1867.71 945.554 1867.48 945.41 1867.26 945.267 C 1865.9 952.217 1864.37 952.286 1860.99 959.419 C 1858 965.71 1849.95 975.747 1846.97 982.852 C 1847.02 982.723 1838.65 983.422 1838.41 983.376 C 1835.02 980.535 1834.89 971.46 1829.2 967.305 C 1826.07 965.02 1821.49 953.109 1820.17 948.733 C 1820.42 946.142 1821.63 942.702 1822.58 940.304 C 1824.13 936.445 1820.95 938.318 1820.06 935.06 C 1820.18 931.823 1820.3 931.779 1819.38 928.757 z" fill="rgb(71,81,63)" fill-opacity="0.027451" transform="translate(0,0)"></path>
<path d="M 1282.35 937.773 C 1289.9 924.066 1286.39 926.269 1303.69 925.686 C 1317.06 925.234 1322.84 925.553 1334.77 931.666 L 1332.67 932.52 C 1323.91 929.85 1301.77 923.74 1295.41 929.517 C 1286.23 937.857 1306.69 934.71 1307.34 934.635 C 1305.69 936.101 1301.4 938.336 1300.87 939.385 C 1301.29 942.198 1305.47 943.197 1304.76 944.952 C 1301.15 953.919 1298.46 947.577 1303.72 959.897 C 1307.56 968.882 1317.65 962.382 1321.04 962.64 C 1318.36 972.616 1296.26 957.533 1293.38 969.408 C 1292.35 973.659 1311.38 971.679 1314.56 971.943 C 1309.37 973.171 1302.84 972.694 1298.56 974.403 C 1296.35 975.286 1304.31 984.912 1298.47 988.416 C 1290.73 993.067 1278.36 992.902 1282.09 980.602 C 1282.5 979.228 1278.16 971.826 1282.16 970.791 C 1287.55 969.176 1284.56 967.235 1285.67 964.605 C 1287.04 963.54 1287.58 965.264 1288.38 966.476 L 1288.39 966.447 L 1288.21 966.367 L 1288.35 966.45 C 1288.75 965.329 1289.52 963.351 1287.95 962.755 C 1286.36 962.671 1282.01 962.165 1280.76 961.236 C 1280.7 960.836 1280.68 960.973 1280.81 960.507 C 1283.03 952.349 1282.78 946.015 1282.35 937.773 z" fill="rgb(71,81,63)" fill-opacity="0.188235" transform="translate(0,0)"></path>
<path d="M 1005.03 991.017 C 989.104 988.355 992.346 987.679 993.587 976.989 C 994.204 971.671 990.851 969.064 996.744 963.784 C 997.198 963.377 996.804 961.185 996.514 960.772 C 994.194 957.347 995.883 952.811 994.229 949.575 C 991.104 944.906 991.967 932.153 997.068 928.516 C 1002.15 924.889 1023.08 928.511 1030.35 927.223 C 1032.75 926.797 1036.98 928.028 1039.82 928.11 C 1039.68 932.885 1039.28 935.916 1033.02 934.808 C 1025.58 933.491 1019.67 932.986 1012.16 932.913 C 998.138 940.561 1004.9 937.353 1005.62 945.944 C 1005.83 948.376 1000.76 948.881 1005.2 953.275 C 1003.24 953.545 997.119 951.745 1000.13 958.417 C 1000.69 959.64 1030.55 961.97 1032.5 956.466 C 1032.26 955.996 1026.63 953.968 1025.65 953.505 C 1026.61 953.555 1041.36 954.531 1034.41 959.814 C 1028.29 964.464 1009.52 955.717 1004.99 966.022 C 1003 969.414 1006.64 974.324 1004.65 977.842 C 1003.63 979.694 1007.04 982.246 1008.05 983.205 C 1005.32 982.775 997.214 981.767 997.123 985.526 C 996.972 991.789 1022.83 988.159 1026.75 987.864 C 1029.61 987.834 1035.47 989.393 1036.07 985.783 C 1033.95 983.728 1016.82 986.707 1008.05 983.205 C 1009.99 983.158 1051.79 980.398 1038.03 989.234 C 1034.96 991.207 1011.9 990.259 1005.03 991.017 z" fill="rgb(71,81,63)" fill-opacity="0.537255" transform="translate(0,0)"></path>
<path d="M 258.554 713.656 C 253.182 716.185 252.102 722.705 246.471 719.985 C 245.181 717.887 244.896 715.54 245.591 712.98 C 247.481 706.028 242.275 701.465 241.808 698.759 C 240.599 685.257 237.95 658.428 240.793 645.458 C 243.935 631.12 244.274 601.776 248.738 590.424 C 250.832 610.376 245.8 704.209 251.048 713.195 C 253.501 713.352 256.112 713.568 258.554 713.656 z" fill="rgb(35,39,12)" fill-opacity="0.964706" transform="translate(0,0)"></path>
<path d="M 2335.05 988.31 C 2329.05 986.476 2322.66 976.574 2321.45 970.514 C 2319.81 962.308 2322.61 946.924 2321.48 939.014 C 2319.59 925.869 2320.19 924.543 2334.83 927.596 C 2336.7 931.899 2335.64 945.805 2336.23 950.965 C 2337.33 960.44 2338.16 967.15 2337.63 975.73 C 2337.68 974.911 2340.79 979.784 2341.09 980.328 C 2340.36 979.925 2330.02 974.119 2329.41 977.887 C 2329.14 979.592 2333.23 983.78 2334.48 986.089 C 2335.13 986.842 2334.97 987.052 2335.05 988.31 z" fill="rgb(75,84,66)" fill-opacity="0.184314" transform="translate(0,0)"></path>
<path d="M 1110.7 990.66 C 1105.62 991.238 1101.13 988.942 1096.23 987.547 C 1094.64 986.652 1090.39 985.131 1090.06 983.064 C 1089.18 976.931 1084.1 978.382 1080.6 974.717 C 1075.47 969.342 1080.54 961.123 1079.12 955.048 C 1078.19 951.048 1078.15 951.81 1079.13 947.929 C 1080.01 944.478 1080.66 943.262 1083.16 940.374 C 1086.5 937.505 1091.09 931.023 1095.12 929.957 L 1096.34 929.618 C 1095.67 930.72 1094.97 931.768 1094.26 932.849 C 1093.01 933.72 1090.7 943.722 1101.6 936.41 L 1103.06 936.605 L 1105.39 936.211 C 1101.03 940.023 1099.9 942.447 1094.4 945.307 C 1093.75 945.642 1091.39 972.111 1096.04 973.928 C 1115.1 981.373 1096.75 982.479 1119.44 983.01 L 1119.25 983.76 C 1117.85 983.862 1116.5 983.967 1115.1 984.034 C 1108.94 984.107 1106.24 986.351 1103.54 980.286 C 1101.8 979.077 1100.04 977.886 1098.26 976.714 C 1088.75 978.563 1093.68 985.403 1099.88 986.736 C 1101.09 986.996 1110.47 990.435 1110.7 990.66 z" fill="rgb(75,84,66)" fill-opacity="0.427451" transform="translate(0,0)"></path>
<path d="M 2023.51 926.191 C 2026.34 925.954 2033.71 924.77 2035.92 926.056 C 2036.1 926.604 2034.42 929.85 2035.99 930.494 C 2036 930.393 2036.01 930.292 2036.02 930.191 L 2036.09 930.116 C 2038.71 931.83 2037.42 935.568 2037.36 935.598 C 2034.14 937.137 2036.1 938.201 2035.09 942.478 C 2034.04 946.886 2034.12 954.855 2034.71 959.37 C 2035.09 962.246 2033.38 968.889 2035.44 969.673 C 2036.32 969.183 2036.92 968.216 2037.94 968.056 C 2039.65 970.158 2036.05 974.826 2037.79 978.324 C 2039.8 979.69 2040.75 981.324 2043.37 982.193 L 2044.78 982.698 C 2039.7 982.489 2013.93 981.429 2030.31 989.435 C 2020.2 989.563 2022.79 989.492 2022.38 983.965 L 2022.27 983.889 C 2022.19 983.249 2022.77 982.601 2022.79 982.306 C 2024.32 965.597 2023.5 942.593 2023.51 926.191 z" fill="rgb(71,81,63)" fill-opacity="0.0823529" transform="translate(0,0)"></path>
<path d="M 1335.39 932.445 C 1347.33 934.503 1345 947.575 1344.4 957.614 C 1340.44 961.523 1339.25 963.526 1334.02 965.585 C 1324.04 969.44 1334.98 971.165 1333.77 977.544 C 1332.58 983.854 1348.4 982.341 1343.41 989.562 C 1340.02 994.472 1330.26 985.544 1328.37 984.406 C 1321.58 980.324 1322.14 973.091 1314.56 971.943 C 1311.38 971.679 1292.35 973.659 1293.38 969.408 C 1296.26 957.533 1318.36 972.616 1321.04 962.64 C 1323.33 961.475 1325.65 960.382 1328 959.361 C 1329.65 958.653 1328.43 959.243 1330.39 958.232 C 1330.68 946.914 1329.67 946.864 1329.19 938.533 C 1333.47 941.64 1331.66 944.87 1332.7 946.389 C 1333.7 946.835 1334.89 946.043 1335.38 947.468 C 1336.73 949.575 1333.37 957.135 1334.74 958.173 C 1339.02 961.412 1341.44 956.852 1341.57 953.529 C 1341.85 946.706 1342.35 945.827 1339.88 939.927 C 1338 935.432 1338.77 935.779 1335.39 932.445 z" fill="rgb(71,81,63)" fill-opacity="0.34902" transform="translate(0,0)"></path>
<path d="M 1307.34 934.635 C 1311.52 933.309 1314.83 933.257 1318.79 934.996 C 1322.78 937.251 1324.82 937.246 1329.19 938.533 C 1329.67 946.864 1330.68 946.914 1330.39 958.232 C 1328.43 959.243 1329.65 958.653 1328 959.361 C 1325.65 960.382 1323.33 961.475 1321.04 962.64 C 1317.65 962.382 1307.56 968.882 1303.72 959.897 C 1298.46 947.577 1301.15 953.919 1304.76 944.952 C 1305.47 943.197 1301.29 942.198 1300.87 939.385 C 1301.4 938.336 1305.69 936.101 1307.34 934.635 z" fill="rgb(253,253,253)" fill-opacity="0.00784314" transform="translate(0,0)"></path>
<path d="M 327.053 679.312 C 348.106 667.734 414.037 651.228 438.153 647.909 L 442.534 651.095 C 391.866 666.533 342.033 684.41 296.678 711.781 C 292.917 714.051 287.869 717.153 283.955 718.972 C 284.052 718.807 284.157 718.646 284.246 718.476 C 288.255 710.77 328.664 691.631 338.482 686.837 C 355.211 679.485 376.28 669.085 393.926 664.795 C 397.319 664.192 398.804 661.298 401.019 660.817 C 407.797 659.345 413.591 657.911 420.223 655.852 C 402.798 654.119 403.09 658.982 388.2 660.771 L 387.437 660.867 C 375.842 663.181 359.327 670.578 347.487 673.147 C 338.932 675.003 336.844 678.944 327.053 679.312 z" fill="rgb(253,253,253)" fill-opacity="0.439216" transform="translate(0,0)"></path>
<path d="M 2457.66 971.171 C 2451.54 972.725 2446.1 972.391 2440 973.641 C 2435.39 975.549 2443.21 983.145 2441.46 986.359 C 2440.92 987.835 2432.51 990.731 2431.48 990.632 C 2422.21 989.74 2429.04 976.725 2428.5 970.517 C 2428.16 966.656 2428.61 962.931 2427.48 958.498 C 2426.79 955.751 2427.72 948.024 2427.48 945.001 C 2427.38 926.897 2425.81 925.634 2445.05 925.927 C 2450.48 926.009 2457.96 925.207 2463.46 926.979 C 2468.6 928.634 2472.14 929.912 2476.22 933.453 L 2473.53 932.924 C 2468.18 931.866 2464.58 928.836 2458.03 928.321 C 2450.3 927.713 2432.01 924.531 2429.45 934.667 C 2429.49 937.717 2429.24 948.953 2430.23 951.017 L 2430.51 951.146 C 2431.49 950.78 2431.88 949.655 2432.85 948.752 L 2432.94 948.942 C 2439.43 949.738 2431.32 937.008 2439.27 936.341 C 2438.6 941.688 2439.08 938.747 2440 943.523 C 2440.98 948.607 2436.34 950.343 2439.95 957.573 C 2441.9 961.481 2439.56 958.965 2443.52 963.756 L 2442.71 963.918 C 2436.66 964.809 2436.41 970.587 2438.63 971.122 C 2445.07 972.675 2449.49 969.401 2457.66 971.171 z M 2436.62 986.367 C 2434.7 981.066 2434 984.138 2429.79 981.381 C 2429.22 988.15 2429.4 989.029 2436.62 986.367 z" fill="rgb(71,81,63)" fill-opacity="0.298039" transform="translate(0,0)"></path>
<path d="M 2429.79 981.381 C 2434 984.138 2434.7 981.066 2436.62 986.367 C 2429.4 989.029 2429.22 988.15 2429.79 981.381 z" fill="rgb(71,81,63)" fill-opacity="0.392157" transform="translate(0,0)"></path>
<path d="M 1524.16 926.334 C 1543.89 927.206 1531.44 931.187 1536.84 936.035 C 1543.35 940.434 1541.23 939.321 1543.43 945.678 C 1543.12 944.777 1550.65 954.661 1551.14 955.363 C 1560.59 957.146 1556.76 957.228 1560.23 967.554 C 1559 970.81 1557.8 980.811 1558.94 984.543 C 1560.27 988.878 1551.92 987.774 1549.28 988.163 C 1547.16 987.334 1548.59 976.702 1547.84 973.499 C 1547.55 968.604 1548.65 961.204 1542.92 958.683 C 1531.88 953.835 1539.65 940.583 1526.38 936.396 C 1522.88 935.289 1522.98 929.657 1524.16 926.334 z" fill="rgb(71,81,63)" fill-opacity="0.564706" transform="translate(0,0)"></path>
<path d="M 2358.18 982.979 C 2367.29 977.689 2365.89 953.508 2364.39 944.511 C 2364.45 944.839 2364.96 929.528 2364.92 928.011 C 2385.78 918.96 2375.87 934.603 2376.54 940.03 C 2378.6 956.703 2378.04 966.377 2377.04 981.988 C 2376.99 982.453 2373.71 983.746 2373.41 983.879 C 2373.91 982.471 2375.23 979.761 2375.15 978.457 C 2374.28 977.542 2370.82 977.105 2369.48 977.017 C 2359.57 976.372 2368.02 981.242 2359.03 983.346 L 2358.18 982.979 z" fill="rgb(75,84,66)" fill-opacity="0.188235" transform="translate(0,0)"></path>
<path d="M 1403.38 991.837 C 1404.11 992.106 1410.84 994.797 1411.74 995.265 C 1411.93 995.722 1411.88 995.464 1411.8 996.048 C 1407.64 1000.06 1386.33 992.658 1385.76 988.946 C 1386.11 988.243 1386.54 988.136 1387.24 987.856 L 1387.15 987.84 C 1390.02 983.274 1387.74 947.465 1388.51 939.936 C 1388.7 938.079 1377.13 931.02 1386.96 926.807 L 1388.05 926.295 C 1383.67 945.043 1391 929.367 1398.52 939.89 C 1399.69 945.325 1399.59 974.458 1398.76 980.343 C 1395.74 986.731 1394.24 992.95 1403.38 991.837 z" fill="rgb(75,84,66)" fill-opacity="0.0745098" transform="translate(0,0)"></path>
<path d="M 1818.68 949.746 C 1819.93 956.609 1817.62 978.287 1820.48 983.741 C 1824.46 991.323 1818.85 993.044 1812.56 992.087 C 1803.06 990.643 1809.64 981.077 1807.78 974.496 C 1807.69 974.097 1807.6 962.612 1807.65 962.006 C 1807.88 958.839 1807.9 955.66 1807.71 952.491 C 1807.62 950.84 1807.15 945.068 1807.98 943.494 C 1809.66 940.311 1804.6 927.137 1809.45 926.458 C 1814.31 925.776 1816.46 924.659 1819.38 928.757 C 1820.3 931.779 1820.18 931.823 1820.06 935.06 C 1811.7 928.947 1811.16 933.545 1812.39 942.422 C 1812.76 945.057 1816.74 947.745 1818.68 949.746 z" fill="rgb(71,81,63)" fill-opacity="0.0352941" transform="translate(0,0)"></path>
<path d="M 994.164 925.757 C 1003.18 925.512 1033.51 923.669 1039.82 928.11 C 1036.98 928.028 1032.75 926.797 1030.35 927.223 C 1023.08 928.511 1002.15 924.889 997.068 928.516 C 991.967 932.153 991.104 944.906 994.229 949.575 C 995.883 952.811 994.194 957.347 996.514 960.772 C 996.804 961.185 997.198 963.377 996.744 963.784 C 990.851 969.064 994.204 971.671 993.587 976.989 C 992.346 987.679 989.104 988.355 1005.03 991.017 C 994.051 992.205 989.154 991.614 984.488 982.018 L 984.131 981.297 C 985.158 970.165 986.614 960.097 984.198 949.252 C 983.722 947.112 986.226 940.839 986.712 937.504 L 987.733 930.387 C 989.885 928.857 992.025 927.261 994.164 925.757 z" fill="rgb(253,253,253)" fill-opacity="0.0745098" transform="translate(0,0)"></path>
<path d="M 1545.47 990.503 C 1545.51 984.739 1548.02 961.939 1541.6 960.732 C 1532.79 960.939 1533.86 944.073 1531.95 944.019 C 1527.56 943.896 1510.64 927.576 1524.16 926.334 C 1522.98 929.657 1522.88 935.289 1526.38 936.396 C 1539.65 940.583 1531.88 953.835 1542.92 958.683 C 1548.65 961.204 1547.55 968.604 1547.84 973.499 C 1548.59 976.702 1547.16 987.334 1549.28 988.163 C 1551.92 987.774 1560.27 988.878 1558.94 984.543 C 1557.8 980.811 1559 970.81 1560.23 967.554 C 1561.2 962.72 1560.23 961.749 1563.92 957.639 C 1566.3 954.982 1571.97 948.341 1571.91 944.729 C 1571.87 942.179 1568.54 940.18 1567.5 938.474 C 1563.15 943.944 1567.61 943.427 1560.32 948.917 C 1559.67 950.167 1559.73 950.072 1559.82 951.561 C 1555.45 955.276 1556.88 954.3 1551.14 955.363 C 1550.65 954.661 1543.12 944.777 1543.43 945.678 C 1541.23 939.321 1543.35 940.434 1536.84 936.035 C 1545.65 933.927 1543.54 948.118 1552.02 952.104 C 1557.62 956.207 1563.8 938.411 1565.12 937.613 C 1573.28 932.688 1568.57 925.223 1580.05 929.039 C 1587.52 930.967 1573.3 938.634 1574.19 943.466 C 1575.12 948.527 1565.66 958.894 1562.66 961.972 C 1561.98 971.754 1561.66 980.53 1561.36 990.268 C 1556.04 990.59 1550.8 990.492 1545.47 990.503 z" fill="rgb(71,81,63)" fill-opacity="0.298039" transform="translate(0,0)"></path>
<path d="M 908.693 958.824 C 906.356 956.969 905.487 954.575 902.558 953.588 C 896.682 951.422 897.903 936.167 902.738 932.416 C 915.004 922.902 927.532 929.342 939.94 928.288 C 940.973 929.26 946.162 933.784 942.816 935.323 C 932.748 939.954 925.478 932.297 915.363 934.534 C 911.317 938.354 907.156 942.546 911.363 947.097 C 914.226 950.195 911.707 952.493 916.79 953.373 C 930.14 959.969 912.918 958.548 908.693 958.824 z M 936.663 934.267 C 940.511 933.125 938.729 931.654 935.756 932.371 C 934.907 932.739 932.127 933.613 931.781 934.336 C 932.248 934.765 935.943 934.318 936.663 934.267 z" fill="rgb(71,81,63)" fill-opacity="0.909804" transform="translate(0,0)"></path>
<path d="M 935.756 932.371 C 938.729 931.654 940.511 933.125 936.663 934.267 C 935.943 934.318 932.248 934.765 931.781 934.336 C 932.127 933.613 934.907 932.739 935.756 932.371 z" fill="rgb(75,84,66)" fill-opacity="0.976471" transform="translate(0,0)"></path>
<path d="M 2429.45 934.667 C 2432.01 924.531 2450.3 927.713 2458.03 928.321 C 2464.58 928.836 2468.18 931.866 2473.53 932.924 L 2476.22 933.453 C 2480.04 934.21 2482.37 941.074 2484.66 944.832 C 2484.34 948.335 2484.81 956.234 2481.75 958.061 C 2480.49 959.302 2479.28 960.582 2478.1 961.898 C 2475.6 961.494 2473.16 962.354 2472 961.997 C 2471.56 960.501 2473.61 958.729 2473.7 956.469 L 2473.21 955.797 L 2473.57 955.572 L 2473.44 955.571 C 2472.88 956.095 2473.14 955.884 2472.64 956.227 L 2472.45 956.093 C 2471.09 949.402 2475.9 942.639 2467.91 936.576 C 2468.25 933.846 2468.43 931.913 2465.12 931.241 C 2464.72 931.159 2459.94 930.265 2460.53 931.993 C 2460.32 933.544 2460.52 933.817 2461.61 934.881 L 2460.45 935.282 C 2458.98 934.725 2457.82 934.255 2456.38 933.584 C 2451.43 932.421 2450.07 933.239 2445.24 933.785 C 2442.76 934.015 2438.87 935.403 2437.46 934.032 C 2432.2 935.872 2436.82 938.013 2429.45 934.667 z" fill="rgb(71,81,63)" fill-opacity="0.623529" transform="translate(0,0)"></path>
<path d="M 1310.27 795.025 C 1310.89 795.115 1313.65 795.441 1313.79 796.189 C 1314.66 801.013 1313.6 810.577 1313.11 815.5 C 1312.36 823.097 1316.24 857.516 1313 861.905 C 1310.15 855.382 1309.92 858.959 1307.69 851.463 C 1302.89 835.31 1306.07 816.256 1305.34 799.4 C 1305.33 799.08 1308.96 798.52 1309.02 797.063 C 1309.44 796.384 1309.85 795.704 1310.27 795.025 z" fill="rgb(35,39,12)" fill-opacity="0.972549" transform="translate(0,0)"></path>
<path d="M 916.79 953.373 C 925.551 953.975 958.306 963.873 946.998 978.952 C 944.636 982.102 936.824 988.855 933.246 990.698 C 934.167 980.891 934.708 985.185 921.466 984.007 C 930.304 982.218 936.659 983.149 935.406 972.013 C 934.444 963.46 927.35 968.755 921.802 963.238 C 919.437 960.887 912.16 959.908 908.693 958.824 C 912.918 958.548 930.14 959.969 916.79 953.373 z M 937.393 964.479 C 933.946 960.284 930.621 960.676 925.654 961.071 C 926.652 967.161 931.543 964.504 937.393 964.479 z" fill="rgb(71,81,63)" fill-opacity="0.768627" transform="translate(0,0)"></path>
<path d="M 925.654 961.071 C 930.621 960.676 933.946 960.284 937.393 964.479 C 931.543 964.504 926.652 967.161 925.654 961.071 z" fill="rgb(71,81,63)" fill-opacity="0.952941" transform="translate(0,0)"></path>
<path d="M 387.437 660.867 L 388.378 661.028 C 391.608 661.561 395.708 660.843 393.926 664.795 C 376.28 669.085 355.211 679.485 338.482 686.837 C 338.932 676.24 336.292 680.737 325.594 680.398 L 327.053 679.312 C 336.844 678.944 338.932 675.003 347.487 673.147 C 359.327 670.578 375.842 663.181 387.437 660.867 z" fill="rgb(253,253,253)" fill-opacity="0.0431373" transform="translate(0,0)"></path>
<path d="M 1318.97 561.386 C 1321.15 563.294 1319.62 598.667 1320.06 604.401 C 1320.38 608.504 1320.53 620.957 1320.13 625 C 1314.54 621.802 1319.8 621.728 1316.65 617.653 C 1315.28 615.893 1314.63 614.749 1313.51 612.961 C 1313.49 606.332 1314.36 588.563 1312.49 583.249 L 1312.7 583.358 L 1312.26 583.281 C 1312.18 583.892 1311.95 586.107 1311.52 586.628 C 1311.29 586.014 1311.05 565.384 1311.59 564.907 C 1313.65 563.098 1316.27 565.374 1318.97 561.386 z" fill="rgb(35,39,12)" fill-opacity="0.968627" transform="translate(0,0)"></path>
<path d="M 2461.61 934.881 C 2463.73 935.503 2465.77 936.025 2467.91 936.576 C 2475.9 942.639 2471.09 949.402 2472.45 956.093 L 2472.64 956.227 C 2473.14 955.884 2472.88 956.095 2473.44 955.571 L 2473.57 955.572 L 2473.21 955.797 L 2473.7 956.469 C 2473.61 958.729 2471.56 960.501 2472 961.997 C 2473.16 962.354 2475.6 961.494 2478.1 961.898 C 2476.76 963.599 2475.62 964.396 2472.92 965.096 C 2470.11 965.525 2466.69 966.356 2467.22 969.952 C 2467.46 971.581 2473.4 973.523 2472.3 976.451 C 2471 979.926 2466.22 981.99 2464.29 978.059 C 2463.25 975.965 2459.49 972.353 2457.66 971.171 C 2449.49 969.401 2445.07 972.675 2438.63 971.122 C 2436.41 970.587 2436.66 964.809 2442.71 963.918 L 2443.52 963.756 C 2455.64 967.659 2459.31 964.35 2470.08 958.684 C 2470.22 953.087 2471.08 947.075 2469.59 941.592 C 2468.39 937.185 2464.05 937.434 2460.45 935.282 L 2461.61 934.881 z" fill="rgb(71,81,63)" fill-opacity="0.486275" transform="translate(0,0)"></path>
<path d="M 2030.31 989.435 C 2013.93 981.429 2039.7 982.489 2044.78 982.698 C 2049.38 982.862 2058.55 983.798 2062.5 983.049 C 2076.6 980.377 2075.81 992.989 2062.51 990.284 C 2053.21 988.395 2039.17 992.21 2030.31 989.435 z" fill="rgb(71,81,63)" fill-opacity="0.290196" transform="translate(0,0)"></path>
<path d="M 1694.27 954.44 C 1710.21 954.739 1702.43 959.851 1702.29 962.008 C 1702.09 965.139 1712.14 970.866 1699.24 973.282 C 1692.99 972.936 1683.87 973.294 1684.5 965.613 C 1688.08 963.645 1686.92 961.386 1686.86 958.672 C 1689.39 957.28 1691.79 955.954 1694.27 954.44 z M 1697.31 971.109 C 1703.22 966.972 1697.82 966.021 1693.82 965.142 C 1689.42 969.318 1692.28 970.03 1697.31 971.109 z" fill="rgb(75,84,66)" fill-opacity="0.309804" transform="translate(0,0)"></path>
<path d="M 1693.82 965.142 C 1697.82 966.021 1703.22 966.972 1697.31 971.109 C 1692.28 970.03 1689.42 969.318 1693.82 965.142 z" fill="rgb(75,84,66)" fill-opacity="0.505882" transform="translate(0,0)"></path>
<path d="M 1102.71 928.212 C 1108.96 925.83 1112.49 926.129 1119.38 926.529 C 1123.52 926.768 1125.27 929.089 1129.46 929.398 C 1133.45 929.613 1144.31 935.784 1138.68 940.457 C 1137.41 941.514 1129.98 941.192 1128.58 939.891 C 1123.17 934.883 1111.72 931.811 1105.39 936.211 L 1103.06 936.605 C 1103.33 936.188 1104.64 934.254 1104.78 933.6 C 1105.68 929.469 1120.93 932.93 1119.39 929.617 C 1118.54 927.799 1105.33 928.373 1102.71 928.212 z M 1134.97 937.077 C 1131.54 932.833 1131.52 932.682 1126.25 932.809 C 1130.51 937.53 1128.32 936.716 1134.97 937.077 z" fill="rgb(75,84,66)" fill-opacity="0.568627" transform="translate(0,0)"></path>
<path d="M 1126.25 932.809 C 1131.52 932.682 1131.54 932.833 1134.97 937.077 C 1128.32 936.716 1130.51 937.53 1126.25 932.809 z" fill="rgb(71,81,63)" fill-opacity="0.686275" transform="translate(0,0)"></path>
<path d="M 2445.24 933.785 C 2450.07 933.239 2451.43 932.421 2456.38 933.584 C 2452.42 934.513 2446.04 935.573 2443.13 938.662 C 2441.96 939.902 2449.38 946.227 2446.05 949.537 C 2444.9 950.671 2446 957.402 2447.1 958.525 C 2450.02 962.239 2453.09 964.013 2457.1 961.357 C 2461.54 958.419 2465.21 958.638 2470.08 958.684 C 2459.31 964.35 2455.64 967.659 2443.52 963.756 C 2439.56 958.965 2441.9 961.481 2439.95 957.573 C 2436.34 950.343 2440.98 948.607 2440 943.523 C 2439.08 938.747 2438.6 941.688 2439.27 936.341 C 2442.18 935.375 2442.73 935.323 2445.24 933.785 z" fill="rgb(253,253,253)" fill-opacity="0.0588235" transform="translate(0,0)"></path>
<path d="M 2478.1 961.898 C 2479.28 960.582 2480.49 959.302 2481.75 958.061 C 2477.49 969.843 2473.09 964.555 2470.15 968.547 C 2470.12 969.193 2470.39 969.9 2470.83 970.179 C 2475.1 972.471 2473.47 976.215 2475.49 979.222 C 2476.96 981.408 2484.14 982.154 2484.69 986.519 C 2485.49 992.866 2473.63 991.204 2471.09 988.916 C 2469.76 987.716 2468.69 983.966 2466.03 983.197 C 2462.55 980.392 2458.91 975.312 2457.66 971.171 C 2459.49 972.353 2463.25 975.965 2464.29 978.059 C 2466.22 981.99 2471 979.926 2472.3 976.451 C 2473.4 973.523 2467.46 971.581 2467.22 969.952 C 2466.69 966.356 2470.11 965.525 2472.92 965.096 C 2475.62 964.396 2476.76 963.599 2478.1 961.898 z M 2479.52 988.8 C 2484.08 984.612 2479.03 983.693 2475.21 982.347 L 2474.37 983.191 C 2470 987.449 2476.62 988.163 2479.52 988.8 z" fill="rgb(71,81,63)" fill-opacity="0.270588" transform="translate(0,0)"></path>
<path d="M 2475.21 982.347 C 2479.03 983.693 2484.08 984.612 2479.52 988.8 C 2476.62 988.163 2470 987.449 2474.37 983.191 L 2475.21 982.347 z" fill="rgb(71,81,63)" fill-opacity="0.470588" transform="translate(0,0)"></path>
<path d="M 908.249 990.228 C 906.033 988.961 896.261 985.23 901.147 979.392 C 904.436 975.462 912.453 982.273 914.978 983.885 C 915.781 984.398 920.098 983.991 921.466 984.007 C 934.708 985.185 934.167 980.891 933.246 990.698 C 927.075 989.971 914.646 990.098 908.249 990.228 z" fill="rgb(71,81,63)" fill-opacity="0.937255" transform="translate(0,0)"></path>
<path d="M 1307.34 934.635 C 1306.69 934.71 1286.23 937.857 1295.41 929.517 C 1301.77 923.74 1323.91 929.85 1332.67 932.52 C 1333.25 938.596 1323.38 935.555 1318.79 934.996 C 1314.83 933.257 1311.52 933.309 1307.34 934.635 z" fill="rgb(71,81,63)" fill-opacity="0.607843" transform="translate(0,0)"></path>
<path d="M 1110.7 990.66 C 1110.47 990.435 1101.09 986.996 1099.88 986.736 C 1093.68 985.403 1088.75 978.563 1098.26 976.714 C 1097.01 978.789 1096.47 979.13 1095.02 980.969 C 1095.42 983.154 1102.23 986.764 1103.06 984.584 C 1102.76 983.848 1101.88 983.598 1101.82 982.788 C 1102.35 981.794 1102.69 981.849 1103.54 980.286 C 1106.24 986.351 1108.94 984.107 1115.1 984.034 C 1113.83 984.518 1107.08 986.862 1106.58 987.253 L 1106.67 987.314 L 1106.56 987.08 L 1106.69 987.287 C 1107.61 987.724 1108.48 987.667 1109.47 987.902 C 1114.32 989.056 1119.93 989.81 1124.56 987.505 C 1125.07 987.254 1125.82 986.137 1125.25 985.68 C 1123.8 984.511 1120.95 984.148 1119.25 983.76 L 1119.44 983.01 C 1131.29 982.033 1123.12 976.991 1135.51 977.347 C 1144.97 977.619 1139.7 984.387 1133.52 985.107 C 1132 985.296 1127.11 989.359 1125.57 990.453 C 1120.4 990.549 1115.88 990.777 1110.7 990.66 z" fill="rgb(71,81,63)" fill-opacity="0.572549" transform="translate(0,0)"></path>
<path d="M 2230.94 928.045 C 2234.28 927.763 2236.8 926.687 2241 926.459 C 2249.88 925.976 2252.38 927.09 2260.73 929.486 L 2260.92 930.911 L 2259.99 931.071 C 2252.8 931.952 2257.01 932.127 2257.96 936.693 L 2255.84 936.96 C 2247.73 930.92 2246.03 935.074 2237.33 934.663 C 2235.74 934.823 2233.69 934.971 2232.17 935.253 C 2232.94 930.246 2231.33 931.731 2226.79 931.891 C 2227.77 929.916 2229.19 929.282 2230.94 928.045 z" fill="rgb(75,84,66)" fill-opacity="0.607843" transform="translate(0,0)"></path>
<path d="M 501.65 714.732 C 509.037 712.098 541.266 701.877 547.632 702.143 C 545.685 704.553 536.673 706.977 532.988 708.247 C 519.794 712.796 503.582 723.251 491.811 728.087 C 491.087 724.271 509.662 718.17 508.503 715.741 L 508.47 715.84 C 507.157 714.966 503.863 715.165 501.65 714.732 z" fill="rgb(253,253,253)" fill-opacity="0.588235" transform="translate(0,0)"></path>
<path d="M 939.94 928.288 C 945.353 928.591 952.116 932.114 946.759 937.769 C 944.858 939.775 940.482 939.219 938.206 941.327 C 938.129 941.879 938.48 942.538 938.632 943.073 C 940.778 950.633 928.643 949.244 928.491 945.37 C 928.198 937.928 932.035 939.601 923.019 936.386 C 920.766 935.583 918.126 935.171 915.363 934.534 C 925.478 932.297 932.748 939.954 942.816 935.323 C 946.162 933.784 940.973 929.26 939.94 928.288 z M 933.659 944.127 C 933.976 943.485 934.235 943.164 934.19 942.765 C 933.804 942.69 933.478 942.925 932.829 943.197 C 932.632 943.358 931.945 943.759 931.852 944.161 C 932.354 944.156 932.856 944.152 933.358 944.148 C 933.458 944.141 933.558 944.134 933.659 944.127 z" fill="rgb(253,253,253)" fill-opacity="0.0862745" transform="translate(0,0)"></path>
<path d="M 932.829 943.197 C 933.478 942.925 933.804 942.69 934.19 942.765 C 934.235 943.164 933.976 943.485 933.659 944.127 C 933.558 944.134 933.458 944.141 933.358 944.148 C 932.856 944.152 932.354 944.156 931.852 944.161 C 931.945 943.759 932.632 943.358 932.829 943.197 z" fill="rgb(253,253,253)" fill-opacity="0.109804" transform="translate(0,0)"></path>
<path d="M 1332.67 932.52 L 1334.77 931.666 L 1335.39 932.445 C 1338.77 935.779 1338 935.432 1339.88 939.927 C 1342.35 945.827 1341.85 946.706 1341.57 953.529 C 1341.44 956.852 1339.02 961.412 1334.74 958.173 C 1333.37 957.135 1336.73 949.575 1335.38 947.468 C 1334.89 946.043 1333.7 946.835 1332.7 946.389 C 1331.66 944.87 1333.47 941.64 1329.19 938.533 C 1324.82 937.246 1322.78 937.251 1318.79 934.996 C 1323.38 935.555 1333.25 938.596 1332.67 932.52 z" fill="rgb(71,81,63)" fill-opacity="0.392157" transform="translate(0,0)"></path>
<path d="M 2242.59 989.184 C 2237.29 988.614 2222.57 985.332 2222.76 981.519 C 2223.26 971.598 2231.31 980.123 2233.83 982.934 C 2241.35 983.456 2246.57 983.188 2254.01 983.112 C 2259.05 981.038 2255.79 975.626 2265.56 978.98 C 2265.83 983.139 2252.15 988.622 2247.99 989.084 C 2261.76 982.087 2237.26 983.846 2237.6 987.458 C 2237.97 987.632 2241.36 988.677 2242.59 989.184 z" fill="rgb(71,81,63)" fill-opacity="0.666667" transform="translate(0,0)"></path>
<path d="M 1388.05 926.295 C 1392.3 926.127 1399.9 924.495 1402.93 928.053 C 1410.93 937.461 1400.67 936.779 1398.52 939.89 C 1391 929.367 1383.67 945.043 1388.05 926.295 z" fill="rgb(71,81,63)" fill-opacity="0.168627" transform="translate(0,0)"></path>
<path d="M 469.739 742.55 C 475.853 742.674 489.723 735.812 495.839 733.114 C 486.478 741.28 475.767 751.669 467.171 758.949 C 469.593 752.496 472.236 751.837 476.512 747.011 L 480.747 742.306 C 465.15 750.912 473.69 749.37 456.85 750.247 C 460.66 747.733 466.489 745.019 469.739 742.55 z" fill="rgb(39,48,8)" fill-opacity="0.988235" transform="translate(0,0)"></path>
<path d="M 2359.03 983.346 C 2368.02 981.242 2359.57 976.372 2369.48 977.017 C 2370.82 977.105 2374.28 977.542 2375.15 978.457 C 2375.23 979.761 2373.91 982.471 2373.41 983.879 C 2369.05 984.894 2369.32 984.6 2366.38 987.333 C 2359.3 993.915 2343.09 990.185 2335.05 988.31 C 2334.97 987.052 2335.13 986.842 2334.48 986.089 C 2338.19 986.622 2339.46 986.138 2343.01 987.383 C 2347.64 988.079 2351.58 989.809 2356.48 988.863 C 2360.09 988.167 2364.88 986.691 2359.11 984.047 L 2359.03 983.346 z" fill="rgb(75,84,66)" fill-opacity="0.447059" transform="translate(0,0)"></path>
<path d="M 1025.65 953.505 C 1026.63 953.968 1032.26 955.996 1032.5 956.466 C 1030.55 961.97 1000.69 959.64 1000.13 958.417 C 997.119 951.745 1003.24 953.545 1005.2 953.275 C 1019.18 957.714 1010.54 956.29 1025.65 953.505 z" fill="rgb(75,84,66)" fill-opacity="0.635294" transform="translate(0,0)"></path>
<path d="M 1026.75 987.864 C 1022.83 988.159 996.972 991.789 997.123 985.526 C 997.214 981.767 1005.32 982.775 1008.05 983.205 C 1016.82 986.707 1033.95 983.728 1036.07 985.783 C 1035.47 989.393 1029.61 987.834 1026.75 987.864 z" fill="rgb(71,81,63)" fill-opacity="0.815686" transform="translate(0,0)"></path>
<path d="M 1560.32 948.917 C 1567.61 943.427 1563.15 943.944 1567.5 938.474 C 1568.54 940.18 1571.87 942.179 1571.91 944.729 C 1571.97 948.341 1566.3 954.982 1563.92 957.639 C 1560.23 961.749 1561.2 962.72 1560.23 967.554 C 1556.76 957.228 1560.59 957.146 1551.14 955.363 C 1556.88 954.3 1555.45 955.276 1559.82 951.561 C 1563.91 958.104 1570.79 950.284 1560.32 948.917 z" fill="rgb(71,81,63)" fill-opacity="0.435294" transform="translate(0,0)"></path>
<path d="M 397.031 766.392 C 400.82 766.487 410.661 763.941 411.19 768.568 C 411.63 772.416 402.444 771.877 400.777 775.589 C 399.117 778.971 402.043 778.947 399.039 782.042 C 395.174 769.696 399.893 773.338 388.507 773.556 L 386.677 772.621 C 390.055 770.54 393.879 768.587 397.031 766.392 z" fill="rgb(253,253,253)" fill-opacity="0.129412" transform="translate(0,0)"></path>
<path d="M 1818.68 949.746 C 1816.74 947.745 1812.76 945.057 1812.39 942.422 C 1811.16 933.545 1811.7 928.947 1820.06 935.06 C 1820.95 938.318 1824.13 936.445 1822.58 940.304 C 1821.63 942.702 1820.42 946.142 1820.17 948.733 L 1818.68 949.746 z" fill="rgb(71,81,63)" fill-opacity="0.137255" transform="translate(0,0)"></path>
<path d="M 2334.48 986.089 C 2333.23 983.78 2329.14 979.592 2329.41 977.887 C 2330.02 974.119 2340.36 979.925 2341.09 980.328 C 2342.69 985.31 2353.49 983.024 2358.18 982.979 L 2359.03 983.346 L 2359.11 984.047 C 2347.9 984.164 2350.99 986.367 2343.01 987.383 C 2339.46 986.138 2338.19 986.622 2334.48 986.089 z" fill="rgb(71,81,63)" fill-opacity="0.572549" transform="translate(0,0)"></path>
<path d="M 2429.45 934.667 C 2436.82 938.013 2432.2 935.872 2437.46 934.032 C 2438.87 935.403 2442.76 934.015 2445.24 933.785 C 2442.73 935.323 2442.18 935.375 2439.27 936.341 C 2431.32 937.008 2439.43 949.738 2432.94 948.942 L 2432.85 948.752 C 2431.88 949.655 2431.49 950.78 2430.51 951.146 L 2430.23 951.017 C 2429.24 948.953 2429.49 937.717 2429.45 934.667 z" fill="rgb(71,81,63)" fill-opacity="0.454902" transform="translate(0,0)"></path>
<path d="M 387.437 660.867 L 388.2 660.771 C 403.09 658.982 402.798 654.119 420.223 655.852 C 413.591 657.911 407.797 659.345 401.019 660.817 C 398.804 661.298 397.319 664.192 393.926 664.795 C 395.708 660.843 391.608 661.561 388.378 661.028 L 387.437 660.867 z" fill="rgb(253,253,253)" fill-opacity="0.215686" transform="translate(0,0)"></path>
<path d="M 1398.76 980.343 C 1402.44 981.888 1404.52 982.787 1406.04 986.786 C 1408.21 992.48 1403.68 987.916 1403.38 991.837 C 1394.24 992.95 1395.74 986.731 1398.76 980.343 z" fill="rgb(253,253,253)" fill-opacity="0.14902" transform="translate(0,0)"></path>
<path d="M 1102.71 928.212 C 1105.33 928.373 1118.54 927.799 1119.39 929.617 C 1120.93 932.93 1105.68 929.469 1104.78 933.6 C 1104.64 934.254 1103.33 936.188 1103.06 936.605 L 1101.6 936.41 C 1101.47 933.917 1103.32 932.709 1102.73 931.975 C 1101.34 931.781 1096.11 932.672 1094.26 932.849 C 1094.97 931.768 1095.67 930.72 1096.34 929.618 C 1099.09 929.363 1100.42 929.569 1102.71 928.212 z" fill="rgb(75,84,66)" fill-opacity="0.701961" transform="translate(0,0)"></path>
<path d="M 388.507 773.556 C 399.893 773.338 395.174 769.696 399.039 782.042 C 398.056 782.214 388.225 780.021 387.675 779.574 C 387.686 778.297 388.404 776.062 388.507 773.556 z" fill="rgb(253,253,253)" fill-opacity="0.0745098" transform="translate(0,0)"></path>
<path d="M 438.153 647.909 C 442.322 647.323 465.332 643.226 467.641 644.518 C 466.382 645.887 446.525 649.58 442.534 651.095 L 438.153 647.909 z" fill="rgb(235,236,225)" fill-opacity="0.890196" transform="translate(0,0)"></path>
<path d="M 1119.25 983.76 C 1120.95 984.148 1123.8 984.511 1125.25 985.68 C 1125.82 986.137 1125.07 987.254 1124.56 987.505 C 1119.93 989.81 1114.32 989.056 1109.47 987.902 C 1108.48 987.667 1107.61 987.724 1106.69 987.287 L 1106.56 987.08 L 1106.67 987.314 L 1106.58 987.253 C 1107.08 986.862 1113.83 984.518 1115.1 984.034 C 1116.5 983.967 1117.85 983.862 1119.25 983.76 z" fill="rgb(71,81,63)" fill-opacity="0.8" transform="translate(0,0)"></path>
<path d="M 2343.01 987.383 C 2350.99 986.367 2347.9 984.164 2359.11 984.047 C 2364.88 986.691 2360.09 988.167 2356.48 988.863 C 2351.58 989.809 2347.64 988.079 2343.01 987.383 z" fill="rgb(71,81,63)" fill-opacity="0.713725" transform="translate(0,0)"></path>
<path d="M 1882.01 991.678 C 1869.04 991.137 1866.23 982.282 1882.16 983.837 C 1881 985.373 1880.76 985.776 1878.71 985.659 L 1878.69 985.573 C 1878.27 985.787 1877.75 986.141 1877.65 986.662 C 1877.51 987.417 1877.77 988.192 1878.34 988.704 C 1879.69 989.902 1881.02 987.301 1882.01 991.678 z" fill="rgb(75,84,66)" fill-opacity="0.0509804" transform="translate(0,0)"></path>
<path d="M 1094.26 932.849 C 1096.11 932.672 1101.34 931.781 1102.73 931.975 C 1103.32 932.709 1101.47 933.917 1101.6 936.41 C 1090.7 943.722 1093.01 933.72 1094.26 932.849 z" fill="rgb(71,81,63)" fill-opacity="0.835294" transform="translate(0,0)"></path>
<path d="M 2242.59 989.184 C 2241.36 988.677 2237.97 987.632 2237.6 987.458 C 2237.26 983.846 2261.76 982.087 2247.99 989.084 C 2246.06 989.062 2244.52 989.054 2242.59 989.184 z" fill="rgb(71,81,63)" fill-opacity="0.8" transform="translate(0,0)"></path>
<path d="M 2226.79 931.891 C 2231.33 931.731 2232.94 930.246 2232.17 935.253 C 2231.48 936.336 2226.74 942.2 2225.58 939.01 C 2221.77 937.311 2225.35 934.856 2226.79 931.891 z" fill="rgb(71,81,63)" fill-opacity="0.756863" transform="translate(0,0)"></path>
<path d="M 1103.54 980.286 C 1102.69 981.849 1102.35 981.794 1101.82 982.788 C 1101.88 983.598 1102.76 983.848 1103.06 984.584 C 1102.23 986.764 1095.42 983.154 1095.02 980.969 C 1096.47 979.13 1097.01 978.789 1098.26 976.714 C 1100.04 977.886 1101.8 979.077 1103.54 980.286 z" fill="rgb(71,81,63)" fill-opacity="0.729412" transform="translate(0,0)"></path>
<path d="M 2461.61 934.881 C 2460.52 933.817 2460.32 933.544 2460.53 931.993 C 2459.94 930.265 2464.72 931.159 2465.12 931.241 C 2468.43 931.913 2468.25 933.846 2467.91 936.576 C 2465.77 936.025 2463.73 935.503 2461.61 934.881 z" fill="rgb(71,81,63)" fill-opacity="0.737255" transform="translate(0,0)"></path>
<path d="M 2260.92 930.911 C 2262.47 936.479 2264.86 936.402 2257.96 936.693 C 2257.01 932.127 2252.8 931.952 2259.99 931.071 L 2260.92 930.911 z" fill="rgb(75,84,66)" fill-opacity="0.701961" transform="translate(0,0)"></path>
<path d="M 1560.32 948.917 C 1570.79 950.284 1563.91 958.104 1559.82 951.561 C 1559.73 950.072 1559.67 950.167 1560.32 948.917 z" fill="rgb(75,84,66)" fill-opacity="0.54902" transform="translate(0,0)"></path>
<metadata></metadata></svg>