<svg xmlns="http://www.w3.org/2000/svg" height="2048" preserveAspectRatio="none" style="display: block;" version="1.1" viewBox="0 0 2048 2048" width="2048">
<path d="M 465.981 584.214 C 464.457 575.586 467.02 568.056 467.553 559.553 C 469.499 528.501 463.867 508.005 483.717 479.943 C 496.641 461.674 507.529 456.468 525.739 445.116 C 529.191 442.965 534.233 442.489 538.154 441.524 C 558.092 436.619 572.164 435.695 592.384 440.963 C 608.839 445.249 623.705 454.781 635.755 466.621 C 640.84 471.618 645.757 477.531 652.179 480.794 C 660.003 484.769 672.217 483.805 680.966 483.931 C 732.48 484.67 783.289 473.014 828.147 447.336 C 848.643 435.604 864.918 422.886 880.238 404.968 C 887.568 396.397 894.424 387.249 902.477 379.34 C 949.072 333.577 1018.21 323.674 1079.42 340.427 C 1107.06 347.991 1134.88 366.12 1153.77 387.703 C 1165.73 401.37 1176.39 415.878 1190.41 427.675 C 1229.98 460.97 1282.83 475.821 1333.03 482.52 C 1348.85 484.63 1384.2 487.393 1398.11 479.675 C 1406.54 474.992 1412.74 466.231 1420.05 460.021 C 1443.2 440.328 1477.07 432.464 1506.5 440.04 C 1533.76 447.056 1556.06 465.38 1569.94 489.561 C 1574.9 498.212 1578.35 506.9 1579.88 516.792 C 1585.21 551.362 1582.61 587.344 1582.71 622.22 C 1582.81 656.919 1584.44 692.251 1582.47 726.86 C 1581.37 746.125 1580.12 764.995 1575.03 783.664 C 1558.63 843.747 1503.21 893.968 1450.63 923.718 C 1440.37 929.523 1382.26 957.928 1374.49 955.804 C 1374.19 955.722 1373.92 955.557 1373.64 955.434 C 1369.74 942.228 1373.51 919.6 1372.9 903.733 C 1370.22 832.681 1375.55 759.669 1369.73 689.135 C 1368.64 675.935 1347.82 650.475 1335.54 645.388 C 1299.05 630.417 1264.41 638.865 1224.82 624.576 C 1170.77 605.07 1129.12 577.302 1082.45 544.531 C 1071.63 536.933 1031.71 501.138 1020.97 505.625 C 998.107 515.17 974.597 539.159 954.302 554.074 C 905.868 589.289 834.629 627.045 774.706 635.539 C 735.013 641.165 709.062 630.949 682.942 675.253 C 668.922 699.033 679.778 736.254 673.23 744.678 C 672.4 751.823 674.948 770.748 674.877 783.894 C 674.585 837.853 673.9 893.874 674.914 947.874 C 674.949 949.74 671.338 951.17 669.874 951.839 C 663.814 951.336 601.773 921.353 593.66 916.693 C 581.779 909.885 570.331 902.345 559.384 894.118 C 512.038 858.703 468.218 806.805 467.851 744.89 C 467.796 735.58 467.762 726.267 467.735 716.957 C 467.805 689.803 467.572 662.648 467.035 635.5 C 466.719 621.04 468.279 597.828 465.981 584.214 z" fill="rgb(37,61,15)" transform="translate(0,0)"></path>
<path d="M 468.638 549.859 C 496.425 631.449 554.433 686.224 630.064 724.601 C 636.511 727.872 671.343 741.239 673.23 744.678 C 672.4 751.823 674.948 770.748 674.877 783.894 C 674.585 837.853 673.9 893.874 674.914 947.874 C 674.949 949.74 671.338 951.17 669.874 951.839 C 663.814 951.336 601.773 921.353 593.66 916.693 C 581.779 909.885 570.331 902.345 559.384 894.118 C 512.038 858.703 468.218 806.805 467.851 744.89 C 467.796 735.58 467.762 726.267 467.735 716.957 C 467.805 689.803 467.572 662.648 467.035 635.5 C 466.719 621.04 468.279 597.828 465.981 584.214 C 467.363 571.746 469.213 562.461 468.638 549.859 z" fill="rgb(196,229,25)" transform="translate(0,0)"></path>
<path d="M 753.454 703.937 C 762.44 703.208 771.713 701.136 780.278 699.968 C 856.871 689.517 925.058 654.888 987.463 610.548 C 996.925 603.825 1017.37 582.032 1029.27 587.734 L 1028.04 588.16 L 1024.47 587.89 C 1024.06 588.409 1023.65 588.928 1023.25 589.448 C 1022.85 635.245 1023.1 717.406 1023.13 759.426 C 1028.63 760.387 1030.43 760.485 1035.31 763.38 C 1019.59 759.508 1012.88 759.348 997.224 763.659 C 956.417 774.896 935.518 813.173 930.28 852.867 C 929.466 859.037 925.461 874.207 929.817 880.796 C 938.963 889.015 975.218 903.991 985.504 908.701 L 1058.73 942.998 C 1078.24 952.132 1097.64 961.32 1116.77 971.236 C 1122.94 974.43 1129.97 976.652 1136.16 979.839 C 1179.94 1002.38 1225.78 1020.99 1269.55 1043.68 C 1280.98 1049.61 1296.2 1053.11 1304.12 1062.77 C 1304.91 1085.05 1304.45 1109.01 1304.52 1131.49 C 1304.57 1147.27 1305.38 1170.38 1303.83 1185.66 C 1299.24 1230.98 1275.89 1270.79 1245.95 1303.98 C 1219.41 1333.4 1185.82 1356.03 1153.8 1378.97 L 1080.39 1431.74 C 1065.34 1442.48 1050.59 1453.65 1035.29 1464.02 C 1028.71 1468.48 1030.05 1472.79 1021.12 1471.76 L 1023.13 1470.81 C 1024.49 1468.33 1023.86 1295.72 1023.85 1280.6 C 1018.91 1280.67 1011.26 1281.49 1007.91 1278.33 C 1040.84 1281.81 1076.46 1272.39 1097.94 1245.39 C 1111.07 1228.89 1115.61 1209.29 1118.12 1188.69 C 1118.9 1182.29 1122.91 1166.39 1115.61 1161.07 C 1091 1149.45 1066.07 1136.76 1041.54 1125.01 L 826.714 1021.78 C 805.685 1011.54 784.707 1001.18 763.48 991.358 C 757.152 988.428 750.755 985.536 744.99 981.581 C 742.411 975.855 743.506 927.163 743.525 918.346 L 743.632 814.781 L 743.362 753.004 C 743.318 741.636 742.856 720.785 744.781 709.985 C 747.655 708.067 750.607 705.927 753.454 703.937 z" fill="rgb(37,61,15)" transform="translate(0,0)"></path>
<path d="M 813.089 1607.56 C 808.07 1605.8 795.879 1595.25 790.877 1591.59 C 708.268 1531.23 619.239 1474.38 551.643 1396.62 C 530.634 1372.45 511.547 1336.88 498.047 1307.9 C 481.586 1271.63 472.466 1230.48 468.689 1190.93 C 466.938 1167.52 467.861 1132.87 467.884 1108.36 C 468.105 1052.99 468.04 997.608 467.69 942.232 C 467.555 929.994 466.198 906.618 466.645 894.172 C 466.678 893.235 468.949 892.591 470.176 892.059 L 471.672 892.934 C 501.867 951.651 581.409 990.162 641.355 1011.04 C 649.629 1013.92 663.183 1016.59 671.248 1020.97 C 673.174 1023.76 674.761 1026.06 676.009 1027.87 C 674.289 1041.74 674.976 1068.49 674.971 1083.55 C 674.96 1119.02 673.427 1157.22 676.228 1192.36 C 678.349 1218.97 689.755 1253.04 702 1276.47 C 717.249 1305.64 740.448 1337.55 763.844 1360.6 C 780.797 1377.31 806.931 1396.33 826.209 1410.8 L 910.521 1472.98 C 925.867 1484.18 942.851 1494.35 957.055 1506.83 C 949.288 1504.88 921.964 1515.54 915.337 1519.46 C 887.077 1529.38 846.56 1559.56 829.171 1583.86 C 825.346 1587.32 813.242 1601.52 812.627 1606.33 L 813.089 1607.56 z" fill="rgb(37,61,15)" transform="translate(0,0)"></path>
<path d="M 1376.91 1022.94 C 1381.43 1020.4 1387.72 1019.58 1392.9 1018.31 C 1456.35 1002.75 1518.79 971.999 1561.97 921.898 C 1566.75 916.358 1576.39 898.15 1581.36 896.576 C 1585.44 900.216 1584.11 912.143 1584.01 917.475 C 1584.86 933.998 1584.22 955.345 1584.09 972.229 L 1583.6 1064.64 C 1583.53 1145.34 1589.28 1224.35 1555.41 1300.37 C 1500.44 1423.73 1383.18 1502.09 1276.91 1578 C 1269.65 1583.19 1240.75 1605.52 1234.73 1607.61 C 1232.15 1593.7 1195.28 1559.99 1182.67 1549.63 C 1166.91 1536.67 1111.14 1504.19 1092.16 1506.58 C 1101.8 1496.49 1118.34 1487 1130.09 1478.11 C 1154.47 1459.95 1179 1441.99 1203.67 1424.23 C 1230.19 1405.15 1258.76 1384.63 1282.28 1362.13 C 1331.22 1315.01 1369.85 1252.63 1371.85 1183.12 C 1373.28 1133.53 1371.2 1083.97 1372.21 1034.48 C 1373.18 1042.55 1372.92 1054.85 1372.98 1063.25 C 1373.17 1082.03 1373.14 1100.8 1372.88 1119.58 C 1372.81 1126.83 1371.33 1150.86 1375.85 1155.69 L 1378.05 1155.97 C 1378.98 1148.25 1378.19 1121.48 1378.18 1112.11 L 1378.15 1059.39 C 1378.15 1048.46 1378.87 1033.28 1376.91 1022.94 z" fill="rgb(37,61,15)" transform="translate(0,0)"></path>
<path d="M 1376.91 1022.94 C 1381.43 1020.4 1387.72 1019.58 1392.9 1018.31 C 1456.35 1002.75 1518.79 971.999 1561.97 921.898 C 1566.75 916.358 1576.39 898.15 1581.36 896.576 C 1585.44 900.216 1584.11 912.143 1584.01 917.475 C 1582.56 928.712 1584.72 943.499 1582.73 953.539 C 1571.28 1011.41 1535.49 1057.42 1490.3 1093.6 C 1466.37 1112.66 1440.24 1128.77 1412.46 1141.59 C 1405.2 1144.91 1382.87 1153.25 1378.05 1155.97 C 1378.98 1148.25 1378.19 1121.48 1378.18 1112.11 L 1378.15 1059.39 C 1378.15 1048.46 1378.87 1033.28 1376.91 1022.94 z" fill="rgb(196,229,25)" transform="translate(0,0)"></path>
<path d="M 1023.13 759.426 C 1023.1 717.406 1022.85 635.245 1023.25 589.448 C 1023.65 588.928 1024.06 588.409 1024.47 587.89 L 1028.04 588.16 C 1028.02 588.264 1027.45 592.382 1027.38 592.481 C 1020.93 594.222 1029.27 602.88 1035.04 598.278 C 1035.47 597.932 1042.58 598.509 1044.23 598.5 C 1104.67 645.947 1178.28 685.29 1253.83 698.802 C 1268.05 701.345 1282.45 702.266 1297.46 705.001 C 1299.5 708.038 1301.9 711.821 1304.2 714.592 C 1305.01 731.19 1304.52 750.175 1304.51 766.932 L 1304.63 850.423 C 1304.82 880.244 1304.74 910.067 1304.4 939.887 C 1304.37 947.747 1305.84 980.25 1302.62 985.635 C 1300.91 985.716 1300.54 985.734 1298.96 984.929 C 1261.12 965.645 1222.75 947.373 1184.52 928.855 L 1146.74 910.476 C 1139.66 907.041 1131.17 903.683 1124.91 899.286 C 1121.69 893.542 1122.24 884.992 1122.57 878.632 C 1125.29 827.232 1094.07 777.148 1042.72 764.64 C 1039.95 763.964 1038.32 763.605 1035.31 763.38 C 1030.43 760.485 1028.63 760.387 1023.13 759.426 z" fill="rgb(196,229,25)" transform="translate(0,0)"></path>
<path d="M 744.135 1072.36 C 743.795 1067.11 742.265 1057.85 749.035 1057.07 C 789.25 1080.17 835.079 1098.27 876.59 1119.83 C 890.351 1126.98 905.897 1133.42 919.251 1141.38 C 921.635 1142.8 923.123 1144.58 923.465 1147.41 C 924.585 1156.72 925.686 1166.31 926.915 1175.54 C 932.314 1216.09 948.125 1243.18 981.557 1267.14 C 992.051 1274.66 996.819 1273.89 1007.91 1278.33 C 1011.26 1281.49 1018.91 1280.67 1023.85 1280.6 C 1023.86 1295.72 1024.49 1468.33 1023.13 1470.81 L 1021.12 1471.76 C 1016.37 1468.43 1014.26 1466.24 1009.94 1462.53 C 993.381 1448.28 971.892 1434.1 954.352 1421.4 C 925.516 1400.52 896.852 1379.4 868.363 1358.05 C 826.673 1326.71 792.742 1301.55 767.613 1254.23 C 758.79 1237.61 756.969 1228.24 750.332 1212.08 L 750.009 1211.31 C 750.86 1203.59 750.14 1090.78 749.384 1089.38 C 748.262 1091.1 749.022 1102.07 748.842 1105.76 C 747.457 1088.23 750.156 1090.88 744.135 1072.36 z" fill="rgb(196,229,25)" transform="translate(0,0)"></path>
<path d="M 915.337 1519.46 C 921.964 1515.54 949.288 1504.88 957.055 1506.83 C 964.344 1513.61 1018.08 1552.16 1023.69 1551.06 C 1039.76 1547.89 1079 1518.36 1092.16 1506.58 C 1111.14 1504.19 1166.91 1536.67 1182.67 1549.63 C 1195.28 1559.99 1232.15 1593.7 1234.73 1607.61 C 1220.08 1620.24 1202.77 1630.49 1187.59 1641.59 C 1131.77 1682.44 1095.56 1714.97 1022.11 1712.81 C 954.548 1710.82 927.756 1689.37 876.039 1651.7 C 855.196 1636.79 834.212 1622.07 813.089 1607.56 L 812.627 1606.33 C 813.242 1601.52 825.346 1587.32 829.171 1583.86 C 834.618 1581.5 869.757 1544.49 873.815 1544.89 C 887.331 1546.25 883.75 1539.48 887.53 1535.54 C 890.881 1537.34 897.18 1536.29 897.707 1532.78 C 896.595 1531.33 894.713 1533.23 893.842 1532.39 C 895.871 1527.11 909.45 1529.84 911.144 1526.51 L 910.954 1526.28 C 910.046 1525.96 906.584 1526.05 906.539 1525.64 C 907.447 1524.65 911.067 1524.15 915.337 1519.46 z" fill="rgb(196,229,25)" transform="translate(0,0)"></path>
<path d="M 1372.21 1034.48 C 1371.7 1027.88 1371.41 1026.84 1376.91 1022.94 C 1378.87 1033.28 1378.15 1048.46 1378.15 1059.39 L 1378.18 1112.11 C 1378.19 1121.48 1378.98 1148.25 1378.05 1155.97 L 1375.85 1155.69 C 1371.33 1150.86 1372.81 1126.83 1372.88 1119.58 C 1373.14 1100.8 1373.17 1082.03 1372.98 1063.25 C 1372.92 1054.85 1373.18 1042.55 1372.21 1034.48 z" fill="rgb(196,229,25)" fill-opacity="0.976471" transform="translate(0,0)"></path>
<path d="M 744.135 1072.36 C 750.156 1090.88 747.457 1088.23 748.842 1105.76 C 749.022 1102.07 748.262 1091.1 749.384 1089.38 C 750.14 1090.78 750.86 1203.59 750.009 1211.31 C 742.413 1190.19 744.322 1099.42 744.135 1072.36 z" fill="rgb(196,229,25)" fill-opacity="0.980392" transform="translate(0,0)"></path>
<path d="M 829.171 1583.86 C 846.56 1559.56 887.077 1529.38 915.337 1519.46 C 911.067 1524.15 907.447 1524.65 906.539 1525.64 C 906.584 1526.05 910.046 1525.96 910.954 1526.28 L 911.144 1526.51 C 909.45 1529.84 895.871 1527.11 893.842 1532.39 C 894.713 1533.23 896.595 1531.33 897.707 1532.78 C 897.18 1536.29 890.881 1537.34 887.53 1535.54 C 883.75 1539.48 887.331 1546.25 873.815 1544.89 C 869.757 1544.49 834.618 1581.5 829.171 1583.86 z" fill="rgb(196,229,25)" fill-opacity="0.94902" transform="translate(0,0)"></path>
<path d="M 1029.27 587.734 C 1035.73 592.487 1037.89 592.492 1044.23 598.5 C 1042.58 598.509 1035.47 597.932 1035.04 598.278 C 1029.27 602.88 1020.93 594.222 1027.38 592.481 C 1027.45 592.382 1028.02 588.264 1028.04 588.16 L 1029.27 587.734 z" fill="rgb(196,229,25)" fill-opacity="0.980392" transform="translate(0,0)"></path>
<metadata></metadata></svg>