<svg xmlns="http://www.w3.org/2000/svg" height="2048" preserveAspectRatio="none" style="display: block;" version="1.1" viewBox="0 0 2048 2048" width="2048">
<path d="M 544.813 721.079 C 548.28 724.784 620.244 760.113 632.515 766.728 C 740.956 825.188 933.513 937.729 1001.22 1039.91 C 1002.9 1042.56 1004.5 1045.25 1006.2 1047.91 L 1008.69 1051.94 C 1013.31 1060.81 1019.07 1070.18 1022.45 1079.6 C 1024.6 1085.58 1025.74 1078.51 1026.57 1076.25 C 1027.3 1075.07 1028.76 1072.74 1029.07 1071.45 C 1031.19 1062.64 1039.9 1054.02 1040.86 1045.94 C 1048.92 1033.81 1057.64 1022.11 1066.95 1010.91 C 1155.77 906.239 1321.79 815.595 1444.05 751.748 C 1462.1 743.392 1480.53 732.173 1499.01 725.383 C 1506.28 722.712 1503.35 762.455 1503.34 765.534 L 1503.55 853.384 C 1503.59 891.479 1504.42 933.452 1502.97 971.15 C 1501.59 1006.75 1497.87 1046.84 1490.77 1081.2 C 1473.78 1163.55 1437.06 1239.64 1383.48 1304.28 C 1360.06 1335.25 1333.66 1359.77 1304.13 1384.96 C 1236.59 1442.57 1164.09 1494.68 1092.52 1547.14 C 1068.53 1564.72 1030.48 1572.52 1001.22 1566.37 C 987.51 1563.54 974.369 1558.45 962.334 1551.3 C 950.355 1544.29 937.071 1534.07 925.843 1525.7 C 819.358 1446.33 704.626 1372.62 630.498 1260.01 C 584.735 1191 556.612 1111.82 548.599 1029.41 C 547.396 1017.61 546.7 1003.59 545.927 991.5 C 542.725 941.429 544.053 887.624 544.005 837.565 L 543.814 762.035 C 543.78 753.185 543.22 728.814 544.813 721.079 z M 1363.08 975.037 C 1365.15 963.206 1363.5 916.363 1363.51 901.267 C 1356.06 914.927 1350.89 924.879 1341.06 937.526 C 1336.81 942.995 1330.69 949.713 1327 954.796 C 1332.74 951.204 1335.41 946.899 1340.24 942.787 C 1342.61 940.761 1348.36 929.643 1349.95 930.667 C 1350.42 932.448 1348.45 933.669 1348.61 935.257 C 1350.91 937.969 1353.17 925.376 1357.52 928.687 C 1360.25 930.772 1359.38 933.029 1360.58 936.398 L 1360.68 936.369 C 1361.43 935.013 1361.04 930.151 1360.52 928.394 C 1360.25 927.481 1359.13 925.03 1359.62 923.836 C 1359.65 923.764 1360.34 922.44 1360.72 922.476 C 1360.98 922.524 1361.14 922.74 1361.21 922.95 C 1361.53 923.814 1361.57 924.126 1361.74 924.983 L 1361.78 924.928 C 1362.04 926.289 1361.63 928.039 1361.7 928.488 C 1364.19 943.427 1361.64 960.117 1363.08 975.037 z M 1023.91 1348.82 C 1025.72 1343.28 1027.48 1339.13 1029.43 1333.85 C 1023.11 1327.11 1022.34 1327.4 1018.95 1335.22 C 1020.45 1339.71 1022.26 1344.36 1023.91 1348.82 z" fill="rgb(40,41,8)" transform="translate(0,0)"></path>
<path d="M 1018.95 1335.22 C 982.146 1246.87 888.301 1178.93 811.229 1127.96 C 782.848 1109.19 750.495 1093.43 726.038 1069.79 C 676.514 1021.92 684.049 964.891 684.084 900.754 C 693.848 923.089 713.474 949.841 732.114 965.621 C 793.472 1017.57 867.513 1052.81 931.279 1101.91 C 968.23 1130.36 995.357 1157.31 1023.78 1193.81 C 1093.21 1098.74 1196.68 1050.67 1291.06 985.958 C 1302.47 978.134 1316.37 964.165 1327 954.796 C 1332.74 951.204 1335.41 946.899 1340.24 942.787 C 1342.61 940.761 1348.36 929.643 1349.95 930.667 C 1350.42 932.448 1348.45 933.669 1348.61 935.257 C 1350.91 937.969 1353.17 925.376 1357.52 928.687 C 1360.25 930.772 1359.38 933.029 1360.58 936.398 L 1360.68 936.369 C 1361.43 935.013 1361.04 930.151 1360.52 928.394 C 1360.25 927.481 1359.13 925.03 1359.62 923.836 C 1359.65 923.764 1360.34 922.44 1360.72 922.476 C 1360.98 922.524 1361.14 922.74 1361.21 922.95 C 1361.53 923.814 1361.57 924.126 1361.74 924.983 L 1361.78 924.928 C 1362.04 926.289 1361.63 928.039 1361.7 928.488 C 1364.19 943.427 1361.64 960.117 1363.08 975.037 C 1362.47 1011.16 1346.08 1046.51 1320.01 1071.19 C 1295.14 1094.73 1266.88 1108.84 1238.48 1127.04 C 1162.57 1175.66 1065.41 1247.37 1029.43 1333.85 C 1023.11 1327.11 1022.34 1327.4 1018.95 1335.22 z" fill="rgb(231,232,81)" transform="translate(0,0)"></path>
<path d="M 1327 954.796 C 1330.69 949.713 1336.81 942.995 1341.06 937.526 C 1350.89 924.879 1356.06 914.927 1363.51 901.267 C 1363.5 916.363 1365.15 963.206 1363.08 975.037 C 1361.64 960.117 1364.19 943.427 1361.7 928.488 C 1361.63 928.039 1362.04 926.289 1361.78 924.928 L 1361.74 924.983 C 1361.57 924.126 1361.53 923.814 1361.21 922.95 C 1361.14 922.74 1360.98 922.524 1360.72 922.476 C 1360.34 922.44 1359.65 923.764 1359.62 923.836 C 1359.13 925.03 1360.25 927.481 1360.52 928.394 C 1361.04 930.151 1361.43 935.013 1360.68 936.369 L 1360.58 936.398 C 1359.38 933.029 1360.25 930.772 1357.52 928.687 C 1353.17 925.376 1350.91 937.969 1348.61 935.257 C 1348.45 933.669 1350.42 932.448 1349.95 930.667 C 1348.36 929.643 1342.61 940.761 1340.24 942.787 C 1335.41 946.899 1332.74 951.204 1327 954.796 z" fill="rgb(231,232,81)" fill-opacity="0.894118" transform="translate(0,0)"></path>
<path d="M 1018.95 1335.22 C 1022.34 1327.4 1023.11 1327.11 1029.43 1333.85 C 1027.48 1339.13 1025.72 1343.28 1023.91 1348.82 C 1022.26 1344.36 1020.45 1339.71 1018.95 1335.22 z" fill="rgb(231,232,81)" fill-opacity="0.890196" transform="translate(0,0)"></path>
<path d="M 544.813 721.079 C 544.569 694.423 544.654 667.765 545.07 641.111 C 545.29 616.755 542.425 610.288 547.321 585.494 C 556.079 541.146 583.243 508.8 625.016 491.203 C 645.082 483.086 662.822 483.129 683.814 483.106 L 1170.62 483.309 L 1319.94 483.172 C 1346.99 483.144 1374.9 482.504 1401.87 484.545 C 1409.85 485.148 1432.81 495.199 1440.95 499.73 C 1482.08 522.623 1509.08 575.856 1503.35 622.553 C 1502.53 629.227 1469.41 642.486 1462.26 645.726 C 1442.7 654.563 1423.25 663.642 1403.91 672.96 C 1391.31 679.084 1378.55 686.253 1366.07 692.831 C 1256.62 750.537 1144.26 814.371 1058.77 905.353 C 1052.08 912.467 1033.83 930.791 1031.34 938.727 C 1027.62 941.778 1026.53 943.775 1023.79 947.721 C 1023.6 982.155 1022.83 1021.38 1024.43 1055.48 C 1013.4 1067.12 1019.58 1046.04 1014.23 1045.27 C 1012.47 1047.95 1016.07 1057.21 1014.5 1057.84 C 1012.69 1056.79 1012.74 1052.18 1009.82 1052.02 L 1008.69 1051.94 L 1006.2 1047.91 C 1008.26 1045.13 1013.39 1041.7 1009.39 1037.99 C 1007.07 1035.84 1003.01 1037.48 1001.22 1039.91 C 933.513 937.729 740.956 825.188 632.515 766.728 C 620.244 760.113 548.28 724.784 544.813 721.079 z" fill="rgb(40,41,8)" transform="translate(0,0)"></path>
<path d="M 544.813 721.079 C 546.038 716.447 547.196 636.514 546.3 628.787 C 684.166 687.763 938.918 822.23 1023.79 947.721 C 1023.6 982.155 1022.83 1021.38 1024.43 1055.48 C 1013.4 1067.12 1019.58 1046.04 1014.23 1045.27 C 1012.47 1047.95 1016.07 1057.21 1014.5 1057.84 C 1012.69 1056.79 1012.74 1052.18 1009.82 1052.02 L 1008.69 1051.94 L 1006.2 1047.91 C 1008.26 1045.13 1013.39 1041.7 1009.39 1037.99 C 1007.07 1035.84 1003.01 1037.48 1001.22 1039.91 C 933.513 937.729 740.956 825.188 632.515 766.728 C 620.244 760.113 548.28 724.784 544.813 721.079 z" fill="rgb(231,232,81)" transform="translate(0,0)"></path>
<path d="M 1023.79 947.721 C 1026.53 943.775 1027.62 941.778 1031.34 938.727 C 1029.9 942.371 1029.07 943.698 1026.78 946.901 C 1025.48 956.77 1025.79 1052.86 1028.24 1057.63 C 1036 1056.67 1037.22 1050.14 1040.86 1045.94 C 1039.9 1054.02 1031.19 1062.64 1029.07 1071.45 C 1028.76 1072.74 1027.3 1075.07 1026.57 1076.25 C 1018 1070.64 1023.93 1065.24 1024.43 1055.48 C 1022.83 1021.38 1023.6 982.155 1023.79 947.721 z" fill="rgb(247,247,239)" fill-opacity="0.0901961" transform="translate(0,0)"></path>
<path d="M 1008.69 1051.94 L 1009.82 1052.02 C 1012.74 1052.18 1012.69 1056.79 1014.5 1057.84 C 1016.07 1057.21 1012.47 1047.95 1014.23 1045.27 C 1019.58 1046.04 1013.4 1067.12 1024.43 1055.48 C 1023.93 1065.24 1018 1070.64 1026.57 1076.25 C 1025.74 1078.51 1024.6 1085.58 1022.45 1079.6 C 1019.07 1070.18 1013.31 1060.81 1008.69 1051.94 z" fill="rgb(231,232,81)" fill-opacity="0.968627" transform="translate(0,0)"></path>
<path d="M 1001.22 1039.91 C 1003.01 1037.48 1007.07 1035.84 1009.39 1037.99 C 1013.39 1041.7 1008.26 1045.13 1006.2 1047.91 C 1004.5 1045.25 1002.9 1042.56 1001.22 1039.91 z" fill="rgb(231,232,81)" fill-opacity="0.898039" transform="translate(0,0)"></path>
<metadata></metadata></svg>