<svg xmlns="http://www.w3.org/2000/svg" height="2048" preserveAspectRatio="none" style="display: block;" version="1.1" viewBox="0 0 2048 2048" width="2048">
<path d="M 855.528 656.764 C 854.29 656.935 853.053 657.105 851.816 657.276 C 838.423 667.14 777.713 712.987 779.585 727.071 C 784.531 732.5 792.795 752.489 798.203 761.008 C 819.698 794.873 842.484 818.061 875.194 840.749 C 904.781 861.149 938.433 874.904 973.838 881.071 C 1002.46 886.098 1027.81 887.547 1056.66 883.492 C 1178.62 866.346 1282.67 784.637 1367.28 699.852 C 1372.87 694.252 1388.36 674.11 1394.38 672.991 L 1395.88 674.281 C 1397.74 682.604 1392.67 693.013 1391.01 701.238 C 1382.75 742.075 1367.42 776.793 1346.16 812.4 C 1194.28 1066.81 832.144 1051.84 690.631 796.119 C 682.563 781.541 648.039 719.085 659.337 706.794 C 728.696 631.335 821.938 551.054 920.793 518.812 C 878.346 551.807 854.117 603.02 855.528 656.764 z" fill="rgb(46,45,14)" fill-opacity="0.988235" transform="translate(0,0)"></path>
<path d="M 658.184 608.73 C 659.572 605.075 658.962 604.873 659.696 601.841 C 731.791 304.024 1107.95 209.795 1309.44 441.839 C 1335.39 471.724 1388.19 553.609 1388.61 593.142 C 1374.94 610.597 1358.67 625.51 1342.55 640.432 C 1289.4 689.628 1228.89 734.814 1161.56 762.538 C 1156.1 764.784 1153.04 767.503 1146.96 769.021 C 1179.85 734.531 1196.66 687.766 1193.25 640.233 C 1202.29 638.839 1262.93 588.439 1268.56 576.533 C 1270.98 571.417 1239.67 527.45 1235.6 522.595 C 1227.47 513.047 1218.85 503.931 1209.77 495.283 C 1194.35 480.529 1177.22 465.758 1158.67 455.35 C 1117.22 432.599 1061.45 417.458 1013.75 420.242 C 926.906 425.31 844.382 470.065 775.414 520.387 C 769.888 524.419 765.46 529.239 760.245 533.221 C 747.459 542.824 735.034 552.899 722.997 563.425 C 708.202 576.587 677.866 607.833 663.749 622.831 C 663.721 622.83 661.959 622.753 661.877 622.779 C 661.37 622.945 659.575 622.792 659.133 622.307 C 657.762 620.799 658.409 611.886 658.184 608.73 z" fill="rgb(46,45,14)" transform="translate(0,0)"></path>
<path d="M 920.793 518.812 C 970.061 480.516 1036.41 472.464 1093.41 497.865 C 1150.41 523.266 1188.79 577.992 1193.25 640.233 C 1196.66 687.766 1179.85 734.531 1146.96 769.021 C 1099.82 818.468 1027.55 834.688 963.792 810.13 C 900.036 785.573 857.321 725.063 855.528 656.764 C 854.117 603.02 878.346 551.807 920.793 518.812 z M 1046.43 751.466 C 1101.24 739.469 1135.97 685.339 1124.03 630.517 C 1112.09 575.695 1058 540.908 1003.17 552.789 C 948.25 564.688 913.399 618.88 925.356 673.784 C 937.313 728.688 991.542 763.481 1046.43 751.466 z" fill="rgb(195,222,36)" transform="translate(0,0)"></path>
<path d="M 1035.56 591.757 C 1053.86 595.117 1069.57 606.757 1078.11 623.281 C 1086.65 639.806 1087.05 659.353 1079.21 676.219 C 1067.94 700.462 1042.01 714.346 1015.58 710.288 C 994.149 706.997 976.151 692.416 968.482 672.133 C 960.813 651.85 964.664 629.009 978.558 612.361 C 992.453 595.713 1014.24 587.84 1035.56 591.757 z" fill="rgb(46,45,14)" transform="translate(0,0)"></path>
<path d="M 856.51 1643.12 C 857.264 1624.59 856.693 1602.6 856.742 1583.83 L 856.698 1459.82 L 856.657 1125 C 856.673 1113.31 855.038 1046.77 857.327 1042.26 C 858.137 1040.66 859.286 1040.85 860.873 1040.4 C 865.205 1041.83 874.517 1048.96 878.31 1052.08 C 909.726 1077.96 948.48 1097.59 980.594 1121.98 C 981.433 1220.47 980.95 1318.96 979.145 1417.44 L 978.634 1401.01 C 977.455 1424.75 977.984 1451.42 977.966 1475.35 L 977.997 1599.94 L 977.847 1672.82 C 977.727 1685.8 976.855 1707.15 978.023 1719.39 C 979.811 1720.42 980.945 1721.22 982.445 1722.63 C 982.655 1725.43 982.794 1728.48 983.206 1731.23 C 980.757 1732.58 981.704 1732.33 978.951 1732.32 C 965.888 1721.07 949.095 1711.36 934.853 1701.37 C 921.108 1691.16 906.54 1681.68 892.663 1671.76 C 881.424 1663.74 863.49 1654.71 856.51 1643.12 z" fill="rgb(195,222,36)" transform="translate(0,0)"></path>
<path d="M 662.315 1355.21 C 662.823 1342.87 662.094 1328.05 662.014 1315.36 L 661.97 1241.38 L 662.127 990.806 L 661.882 912.866 C 661.843 901.988 661.257 879.207 662.624 869.384 C 666.512 871.069 665.561 875.918 673.09 878.936 C 676.734 897.025 732.866 956.347 750.263 969.376 C 758.145 975.279 786.021 994.039 789.506 999.018 L 790.229 1000.04 C 790.778 1000.87 791.327 1001.7 791.876 1002.53 C 792.983 1028.86 792.123 1061.31 792.096 1088.04 L 792.025 1242.77 L 792.166 1486.44 C 792.176 1519.3 791.86 1552.24 792.47 1585.09 C 792.539 1588.81 792.042 1592.3 790.302 1595.59 L 788.726 1596.46 C 785.624 1595 754.012 1559.53 750.592 1555.38 C 720.727 1518.88 697.296 1477.57 681.304 1433.2 C 676.525 1419.95 672.499 1406.43 669.246 1392.72 C 668.069 1387.57 662.723 1356.05 662.315 1355.21 z" fill="rgb(46,45,14)" transform="translate(0,0)"></path>
<path d="M 1385.67 1138.57 L 1387.41 1138.05 L 1389.51 1139.34 C 1392.28 1143.82 1389.38 1159.96 1389.15 1166.72 C 1388.23 1195 1391.46 1223.82 1388.63 1251.81 C 1388.19 1256.14 1348.58 1267.39 1343.56 1271.68 C 1308.8 1290.62 1282.03 1312.71 1255.03 1341.44 C 1193.51 1406.93 1160.19 1495.69 1161.26 1585.37 C 1161.46 1601.95 1163.64 1621.47 1164.55 1638.27 C 1164.89 1644.66 1168.1 1648.83 1168.26 1659.39 L 1168.27 1660.95 C 1166.55 1663 1163.2 1666.88 1161.03 1668.33 C 1131.66 1687.91 1102.95 1708.54 1073.29 1727.68 C 1070.42 1729.54 1069.96 1728.95 1066.82 1728.61 C 1061.94 1721.33 1057.47 1690.59 1055.94 1681.14 C 1037.82 1569.21 1051.85 1452.03 1108.25 1352.52 C 1152.4 1274.62 1215.84 1212.35 1295.88 1171.7 C 1325.66 1156.48 1354 1147.52 1385.67 1138.57 z" fill="rgb(195,222,36)" transform="translate(0,0)"></path>
<path d="M 1374.39 926.062 C 1376.62 926.31 1384.92 926.148 1385.39 926.287 C 1387.97 930.478 1387.89 973.951 1390.17 982.009 C 1390.99 984.889 1390.39 999.662 1391.14 1005.26 C 1392.59 1018.14 1389.5 1035.21 1390.58 1046.63 C 1393.57 1078.25 1386.55 1070.85 1359.99 1078.09 C 1244.2 1109.65 1137.66 1190.34 1075.38 1292.88 C 1071.85 1298.69 1059.68 1324.45 1053.59 1324.35 C 1053.07 1323.26 1054.84 1295.74 1054.84 1290.73 L 1054.64 1186.53 C 1054.56 1176.08 1051.53 1127.52 1058.02 1123.28 C 1081.47 1107.98 1106.5 1093.04 1130.3 1078.12 L 1270.64 991.331 C 1302.6 971.675 1344.19 947.486 1374.39 926.062 z" fill="rgb(46,45,14)" transform="translate(0,0)"></path>
<path d="M 1385.73 1319.81 C 1388.76 1319.73 1387.56 1319.56 1390.44 1321.13 C 1394.47 1328.22 1388.73 1329.42 1388.61 1333.81 C 1387.99 1357.31 1382.73 1382.69 1376.22 1405.36 C 1356.32 1474.59 1318.94 1539.24 1266.03 1588.45 C 1258.56 1595.4 1243.44 1613.12 1235.43 1617.4 C 1234.53 1617.08 1230.63 1615.84 1230.27 1614.95 C 1224.54 1600.62 1228.71 1572.24 1227.65 1556.56 C 1227.92 1547.44 1229.8 1536.52 1231.08 1527.73 C 1243.83 1440.3 1299.52 1368.03 1376.02 1325.7 C 1381.17 1322.84 1381.32 1324.59 1385.73 1319.81 z" fill="rgb(46,45,14)" transform="translate(0,0)"></path>
<path d="M 980.594 1121.98 C 982.834 1125.53 983.929 1127.61 983.968 1131.87 C 984.112 1147.63 984.038 1163.48 984.026 1179.24 L 984.022 1268.6 L 983.891 1552.24 L 983.767 1685.2 C 983.739 1694.23 984.84 1724.27 983.206 1731.23 C 982.794 1728.48 982.655 1725.43 982.445 1722.63 C 980.945 1721.22 979.811 1720.42 978.023 1719.39 C 976.855 1707.15 977.727 1685.8 977.847 1672.82 L 977.997 1599.94 L 977.966 1475.35 C 977.984 1451.42 977.455 1424.75 978.634 1401.01 L 979.145 1417.44 C 980.95 1318.96 981.433 1220.47 980.594 1121.98 z" fill="rgb(195,222,36)" fill-opacity="0.972549" transform="translate(0,0)"></path>
<path d="M 662.315 1355.21 C 657.455 1343.69 659.303 1249.64 659.224 1229.67 C 658.65 1144.01 658.723 1058.36 659.443 972.707 C 659.482 937.615 659.808 902.394 658.323 867.352 C 658.192 864.252 658.276 861.933 660.478 859.722 C 665.579 861.006 670.647 874.047 673.09 878.936 C 665.561 875.918 666.512 871.069 662.624 869.384 C 661.257 879.207 661.843 901.988 661.882 912.866 L 662.127 990.806 L 661.97 1241.38 L 662.014 1315.36 C 662.094 1328.05 662.823 1342.87 662.315 1355.21 z" fill="rgb(46,45,14)" fill-opacity="0.843137" transform="translate(0,0)"></path>
<path d="M 1374.39 926.062 C 1379.2 922.398 1381.3 925.324 1384.1 921.037 C 1384.74 918.727 1390.22 919.502 1390.82 920.671 C 1392.57 924.099 1391.6 930.937 1391.39 935.627 C 1390.46 956.82 1393.24 984.618 1391.14 1005.26 C 1390.39 999.662 1390.99 984.889 1390.17 982.009 C 1387.89 973.951 1387.97 930.478 1385.39 926.287 C 1384.92 926.148 1376.62 926.31 1374.39 926.062 z" fill="rgb(46,45,14)" fill-opacity="0.976471" transform="translate(0,0)"></path>
<path d="M 663.749 622.831 C 661.508 626.405 658.957 632.965 653.605 630.354 C 649.454 628.329 656.003 622.708 655.727 619.99 C 655.283 615.634 656.235 612.47 658.184 608.73 C 658.409 611.886 657.762 620.799 659.133 622.307 C 659.575 622.792 661.37 622.945 661.877 622.779 C 661.959 622.753 663.721 622.83 663.749 622.831 z" fill="rgb(46,45,14)" fill-opacity="0.976471" transform="translate(0,0)"></path>
<metadata></metadata></svg>