<svg xmlns="http://www.w3.org/2000/svg" height="2048" preserveAspectRatio="none" style="display: block;" version="1.1" viewBox="0 0 2048 2048" width="2048">
<path d="M 1020.57 283.963 C 1021.57 283.897 1024.41 283.689 1025.13 284.066 C 1032.77 288.072 1046.25 303.681 1052.71 309.886 C 1086.14 342.025 1120.63 373.039 1156.13 402.876 C 1258.93 489.53 1377.19 574.207 1501.79 625.725 C 1521.52 632.635 1537.67 636.521 1556.08 647.658 C 1648.14 703.669 1651.25 808.091 1648.55 904.692 C 1646.6 974.406 1630.05 1053.03 1607.65 1119.87 C 1606.37 1123.7 1605.11 1132.88 1602.74 1134.63 C 1595.56 1132.6 1579.53 1113.49 1572.78 1107.81 C 1533.49 1074.73 1489.12 1050.74 1443.16 1028.47 C 1437.15 1025.56 1434.84 1023.01 1436.53 1016.17 C 1449.29 964.648 1461.21 910.063 1440.25 858.946 C 1417.16 801.373 1359 781.553 1308.06 755.575 C 1273.11 737.647 1238.92 718.286 1205.57 697.542 C 1162.8 670.73 1121.3 641.831 1079.76 613.2 C 1071.12 607.242 1030.73 573.904 1025.27 572.147 C 1023.39 572.297 1020.29 572.409 1018.81 573.691 C 997.18 592.413 974.202 609.434 951.072 626.312 C 898.168 664.118 843.348 699.167 786.83 731.32 C 770.089 740.881 753.085 749.974 735.838 758.589 C 701.182 775.557 665.389 789.976 638.213 819.379 C 610.818 849.615 595.875 889.094 596.384 929.891 C 596.725 949.634 601.489 972.498 606.358 991.635 C 607.702 996.915 611.551 1002.26 611.965 1007.53 C 612.145 1009.83 612.079 1011.01 612.418 1013.45 C 614.594 1015.8 615.426 1016.39 616.484 1019.47 C 614.803 1027.03 592.227 1035.25 584.021 1039.42 C 539.169 1062.19 477.476 1099.62 444.995 1137.96 C 442.317 1131.49 437.941 1116.18 435.701 1108.8 C 418 1050.99 407.401 991.284 403.308 931.028 C 401.708 907.472 397.543 885.349 400.656 861.309 C 401.516 854.667 402.572 846.535 402.945 839.975 C 406.125 784.103 414.659 727.043 451.761 682.615 C 489.458 636.84 541.897 630.832 592.517 606.369 C 629.176 588.221 664.869 568.184 699.452 546.337 C 717.623 534.97 735.517 522.221 753.062 509.876 C 847.947 443.113 941.364 368.996 1020.57 283.963 z" fill="rgb(47,56,17)" transform="translate(0,0)"></path>
<path d="M 569.908 1533.28 C 563.203 1529.26 554.038 1519.74 548.304 1514.02 C 471.684 1437.58 417.235 1329.97 476.176 1225.6 C 504.828 1174.86 553.67 1143.99 603.374 1116.18 C 631.189 1101.39 665.003 1090.73 693.888 1076.49 C 737.144 1055.16 779.877 1033.57 821.692 1009.38 C 863.312 985.828 904.102 960.837 943.987 934.453 C 957.422 925.685 970.707 916.688 983.834 907.465 C 994.019 900.274 1013.61 884.809 1024.13 880.825 C 1037.28 884.939 1052.2 899.036 1063.64 906.554 C 1080.62 917.716 1097.43 929.368 1114.4 940.478 C 1145.24 960.286 1176.47 979.485 1208.06 998.063 C 1250.43 1022.59 1299.54 1050.43 1344.26 1070.89 C 1432.25 1111.15 1529.73 1142.76 1576.86 1235.78 C 1599.73 1281.05 1601.89 1334.27 1585.56 1381.99 C 1568.41 1432.09 1536.47 1475.39 1499.23 1512.5 C 1493 1518.68 1481.4 1529.81 1474.42 1534.48 C 1467.16 1531.97 1470.88 1530.63 1470.2 1520.83 C 1471.53 1518.95 1470.72 1520.43 1471.4 1517.91 C 1488.05 1456.69 1462.15 1402.51 1413.68 1364.39 C 1385.88 1342.54 1355.26 1331.15 1325.25 1314.5 C 1287.43 1293.52 1248.49 1274.7 1210.94 1253.73 C 1170.8 1231.25 1131.32 1207.62 1092.55 1182.85 C 1078.78 1174.21 1039.4 1149.53 1029.56 1139.64 L 1018.57 1139.57 C 1000.81 1155.72 968.259 1174.57 947.477 1188.03 C 881.46 1230.8 811.408 1267.79 741.68 1304.14 C 703.19 1324.04 660.771 1343.74 626.885 1370.92 C 589.371 1401.02 564.438 1448.87 571.788 1497.48 C 573.058 1505.88 573.008 1512.91 577.805 1520.64 C 576.799 1535.62 582.691 1533.95 569.908 1533.28 z" fill="rgb(47,56,17)" transform="translate(0,0)"></path>
<path d="M 775.226 1370.1 C 781.88 1370.64 813.207 1403.05 820.679 1409.27 C 866.748 1447.63 943.308 1506.22 1003.72 1515.31 C 1095.18 1529.07 1203.07 1431.99 1265.24 1373.99 C 1275.65 1364.47 1295.59 1380.38 1305.1 1385.07 C 1344.16 1404.14 1408.06 1448.61 1395.77 1499.71 C 1389.2 1527.02 1310.14 1593.63 1285.03 1609.13 C 1275.68 1618.18 1258.48 1630.38 1247.23 1638.48 C 1183.58 1684.33 1108.1 1728.75 1030.01 1742.86 C 1016.04 1745.38 1003.21 1740.66 989.761 1736.93 C 920.505 1717.75 850.039 1675.45 793.13 1632.77 C 767.31 1613.41 655.275 1529.89 652.041 1500.12 C 649.717 1478.53 655.902 1456.88 669.283 1439.77 C 674.683 1432.86 680.793 1426.53 687.512 1420.9 C 701.61 1409.23 759.486 1372.07 775.226 1370.1 z" fill="rgb(47,56,17)" transform="translate(0,0)"></path>
<path d="M 749.122 962.546 C 757.397 955.038 768.861 946.415 777.863 938.83 C 799.857 920.299 821.614 901.488 843.129 882.402 C 867.065 861.01 889.388 837.431 912.176 814.88 C 950.324 777.129 984.541 735.966 1017.41 693.61 C 1019.35 691.104 1021.29 689.095 1024.09 687.614 C 1030.43 688.09 1037.51 702.2 1042.03 708.018 C 1053.56 722.61 1065.41 736.943 1077.57 751.006 C 1111.04 790.019 1146.43 827.34 1183.61 862.831 C 1195.41 874.006 1208.62 884.817 1220.82 895.813 C 1246.97 919.397 1275.2 945.888 1304.67 965.088 C 1309.07 969.334 1313.41 972.827 1318.13 976.699 L 1315.96 979.602 C 1306.91 973.931 1289.82 966.139 1279.55 960.828 C 1256.93 948.994 1234.43 936.914 1212.07 924.587 C 1208.25 922.456 1176.31 903.45 1175.24 903.264 C 1126.88 874.109 1079.77 843.02 1034.49 809.282 C 1032.38 807.712 1024.88 803.243 1023.07 804.153 C 1009.14 811.163 992.859 825.412 980.094 834.318 C 939.45 862.272 897.852 888.812 855.374 913.891 C 833.148 926.85 810.554 939.167 787.62 950.825 C 781.998 953.731 762.305 962.482 758.349 965.598 C 752.655 965.721 751.279 967.566 749.122 962.546 z" fill="rgb(198,211,17)" transform="translate(0,0)"></path>
<path d="M 1175.16 905.431 C 1164.2 901.386 1148.51 889.772 1138.02 883.361 C 1101.11 860.802 1066.16 835.887 1031.49 810.172 C 1021.39 802.683 1006.19 818.72 997.555 825.129 C 986.32 833.387 974.898 841.388 963.299 849.126 C 911.399 884.491 857.554 916.915 802.021 946.247 C 792.011 951.408 776.385 960.405 766.786 964.23 C 755.279 968.815 727.304 988.131 716.818 988.214 L 716.201 986.832 C 722.282 975.802 749.189 960.073 759.286 951.622 C 853.343 872.902 943.002 787.977 1016.98 689.726 C 1018.65 687.519 1022.91 684.37 1025.68 683.797 C 1035.39 693.099 1039.95 700.711 1048.19 711.196 C 1056.67 721.816 1065.29 732.33 1074.04 742.735 C 1136.21 816.481 1205.65 882.201 1279.95 943.549 C 1283.29 946.307 1306.87 964.213 1307.03 964.489 L 1304.67 965.088 C 1275.2 945.888 1246.97 919.397 1220.82 895.813 C 1208.62 884.817 1195.41 874.006 1183.61 862.831 C 1146.43 827.34 1111.04 790.019 1077.57 751.006 C 1065.41 736.943 1053.56 722.61 1042.03 708.018 C 1037.51 702.2 1030.43 688.09 1024.09 687.614 C 1021.29 689.095 1019.35 691.104 1017.41 693.61 C 984.541 735.966 950.324 777.129 912.176 814.88 C 889.388 837.431 867.065 861.01 843.129 882.402 C 821.614 901.488 799.857 920.299 777.863 938.83 C 768.861 946.415 757.397 955.038 749.122 962.546 C 747.924 962.962 737.412 970.019 736.175 971.516 C 732.255 976.26 727.374 977.836 723.5 982.007 C 723.309 982.229 723.597 982.449 723.663 982.516 C 727.486 983.458 730.306 981.318 733.256 979.351 L 734.633 978.438 C 739.871 974.928 741.58 975.217 746.651 972.226 C 751.432 969.407 753.048 967.551 758.349 965.598 C 762.305 962.482 781.998 953.731 787.62 950.825 C 810.554 939.167 833.148 926.85 855.374 913.891 C 897.852 888.812 939.45 862.272 980.094 834.318 C 992.859 825.412 1009.14 811.163 1023.07 804.153 C 1024.88 803.243 1032.38 807.712 1034.49 809.282 C 1079.77 843.02 1126.88 874.109 1175.24 903.264 L 1175.16 905.431 z" fill="rgb(199,206,97)" fill-opacity="0.584314" transform="translate(0,0)"></path>
<path d="M 1175.24 903.264 C 1176.31 903.45 1208.25 922.456 1212.07 924.587 C 1234.43 936.914 1256.93 948.994 1279.55 960.828 C 1289.82 966.139 1306.91 973.931 1315.96 979.602 C 1325.65 986.845 1328.43 980.018 1318.13 976.699 C 1313.41 972.827 1309.07 969.334 1304.67 965.088 L 1307.03 964.489 C 1314.26 971.152 1326.88 977.211 1332.85 985.237 C 1333.02 988.694 1333.45 987.19 1331.83 989.979 C 1330.81 989.999 1296.59 972.546 1292.66 970.558 C 1266.02 956.968 1239.61 942.929 1213.44 928.45 C 1204.4 923.419 1182.77 911.491 1175.16 905.431 L 1175.24 903.264 z" fill="rgb(199,206,97)" fill-opacity="0.67451" transform="translate(0,0)"></path>
<path d="M 758.349 965.598 C 753.048 967.551 751.432 969.407 746.651 972.226 C 741.58 975.217 739.871 974.928 734.633 978.438 L 733.256 979.351 C 730.306 981.318 727.486 983.458 723.663 982.516 C 723.597 982.449 723.309 982.229 723.5 982.007 C 727.374 977.836 732.255 976.26 736.175 971.516 C 737.412 970.019 747.924 962.962 749.122 962.546 C 751.279 967.566 752.655 965.721 758.349 965.598 z" fill="rgb(198,211,17)" fill-opacity="0.980392" transform="translate(0,0)"></path>
<path d="M 577.805 1520.64 C 579.983 1523.65 580.476 1524.63 580.323 1528.5 C 580.101 1535.1 589.292 1538.07 588.753 1544.5 C 588.583 1546.54 586.725 1550.41 584.486 1547.34 C 580.557 1541.96 575.522 1536.69 569.908 1533.28 C 582.691 1533.95 576.799 1535.62 577.805 1520.64 z" fill="rgb(47,56,17)" fill-opacity="0.886275" transform="translate(0,0)"></path>
<path d="M 1474.42 1534.48 C 1471.85 1537.68 1467.2 1546.48 1462 1544.14 C 1461.66 1543.99 1460.67 1543.55 1460.74 1543.03 C 1461.45 1537.93 1467.81 1534.6 1467.68 1529.5 C 1467.51 1525.6 1468.41 1523.81 1470.2 1520.83 C 1470.88 1530.63 1467.16 1531.97 1474.42 1534.48 z" fill="rgb(47,56,17)" fill-opacity="0.929412" transform="translate(0,0)"></path>
<path d="M 1318.13 976.699 C 1328.43 980.018 1325.65 986.845 1315.96 979.602 L 1318.13 976.699 z" fill="rgb(198,211,17)" fill-opacity="0.945098" transform="translate(0,0)"></path>
<metadata></metadata></svg>