<svg xmlns="http://www.w3.org/2000/svg" height="2048" preserveAspectRatio="none" style="display: block;" version="1.1" viewBox="0 0 2048 2048" width="2048">
<path d="M 455.479 565.504 C 509.385 605.514 571.046 643.775 627.423 681.151 L 890.147 856.254 C 925.31 879.647 960.393 903.365 995.669 926.614 C 1002.99 931.438 1012.72 937.423 1018.42 943.901 L 1028.99 942.996 C 1040.93 933.323 1060.93 920.878 1074.14 912.091 L 1154.24 858.771 L 1414.75 685.424 L 1550.04 595.7 C 1556.01 591.82 1585.12 571.65 1588.11 570.316 C 1601.26 570.851 1596.96 567.891 1597.74 582.162 C 1592.55 589.412 1587.1 600.195 1582.41 608.168 C 1569.94 629.384 1557.75 650.965 1545.18 672.109 C 1515.91 721.319 1486.91 770.663 1458.01 820.073 C 1455.4 824.537 1448.94 832.95 1448.25 837.724 C 1443.73 843.991 1433.98 861.694 1430.9 864.547 C 1418.28 876.209 1397.18 886.845 1383.05 897.393 C 1380.73 899.131 1374.91 902.719 1373.21 904.392 C 1365.62 908.629 1356.1 915.15 1348.83 920.197 C 1342.85 924.112 1315.66 941.374 1312.92 944.974 C 1303.34 946.106 1306.61 950.072 1297.72 953.766 C 1292 959.199 1276.3 968.566 1268.8 973.493 L 1222.2 1004.75 C 1177.32 1034.55 1132.52 1065.13 1088.06 1095.55 C 1075.21 1104.34 1038.29 1126.84 1029.74 1136.26 L 1019.84 1135.53 C 962.26 1094.46 899.497 1053.83 840.51 1014.01 L 800.42 987.093 C 793.237 982.357 779.952 974.398 773.975 968.899 C 762.117 962.521 750.714 950.974 737.227 945.063 C 733.025 940.734 717.151 931.437 712.479 928.037 C 698.986 918.219 619.56 869.413 614.379 861.31 C 613.551 859.702 605.347 844.465 604.069 844.402 L 603.807 844.698 C 603.389 846.887 604.457 849.824 603.687 853.266 C 603.163 835.181 584.02 810.222 574.706 793.671 C 546.265 743.678 517.258 694.008 487.692 644.672 C 473.825 621.221 459.165 598.389 446.354 574.223 C 446.283 561.954 445.407 568.097 455.479 565.504 z" fill="rgb(45,43,8)" transform="translate(0,0)"></path>
<path d="M 1299.75 1180.64 C 1301.11 1177.04 1326.57 1162.79 1331.34 1159.81 L 1416.67 1106.03 C 1423.41 1101.83 1441.08 1087.94 1445.99 1088.48 C 1447.71 1090.94 1448.4 1095.3 1448.24 1098.24 C 1445.06 1157.67 1454.62 1223.83 1437.94 1281.19 C 1424.42 1327.66 1390.04 1368.12 1348.84 1392.19 C 1340.95 1396.8 1333.8 1402 1326.21 1407.08 L 1211.35 1482.76 C 1157.07 1518.67 1114.14 1556.72 1048.34 1566.15 C 958.467 1579.02 900.101 1523.46 830.843 1478.4 L 730.843 1412.69 C 710.381 1399.22 687.583 1384.93 668.417 1369.8 C 654.698 1358.98 641.793 1342.39 632.066 1327.85 C 618.51 1307.59 610.8 1285.14 605.077 1261.59 C 603.703 1255.93 603.648 1242.29 602.952 1235.77 C 599.795 1206.21 601.196 1175.72 600.565 1145.93 C 600.36 1136.21 599.114 1098.21 600.547 1091.21 C 603.098 1088.11 601.544 1089.23 605.51 1087.9 C 606.733 1088.11 628.93 1104.09 632.613 1106.42 C 670.459 1130.34 708.23 1155.38 747.159 1177.44 C 746.747 1191.61 748.55 1199.82 751.582 1213.48 C 762.203 1242.57 775.571 1247.61 800.151 1264.1 C 813.924 1273.32 827.642 1282.63 841.306 1292.02 C 901.955 1333.42 962.886 1374.42 1024.09 1414.99 C 1043.79 1403.11 1067.99 1385.8 1087.32 1372.7 L 1194.24 1300.23 L 1249.49 1262.6 C 1274.18 1245.78 1293.01 1236.22 1299.04 1204.42 C 1300.19 1198.36 1303.07 1186.04 1299.75 1180.64 z" fill="rgb(45,43,8)" transform="translate(0,0)"></path>
<path d="M 1373.21 904.392 C 1374.91 902.719 1380.73 899.131 1383.05 897.393 C 1397.18 886.845 1418.28 876.209 1430.9 864.547 C 1433.98 861.694 1443.73 843.991 1448.25 837.724 C 1444.82 851.64 1449.21 902.315 1448.85 919.551 C 1448.83 920.7 1452.05 921.567 1453.04 921.78 C 1473.02 907.645 1497.27 894.688 1517.97 881.227 C 1523.64 877.544 1532.65 869.847 1538.27 867.912 C 1540.21 867.242 1539.31 868.641 1543.13 865.906 C 1553.34 866.804 1549.45 866.708 1549.55 879.023 L 1548.65 880.096 C 1543.31 886.589 1539.19 894.239 1534.85 901.49 C 1517.23 930.939 1498.09 958.673 1479.74 987.698 C 1472.27 999.511 1463.85 1015.67 1454.69 1026.62 C 1435.1 1043.25 1405.83 1059.8 1384.42 1074.1 L 1192.64 1201.29 C 1185.83 1205.76 1179.51 1211.47 1172.7 1215.68 C 1147.17 1231.43 1123.12 1249.59 1097.58 1265.32 C 1094.99 1266.92 1094.12 1267.76 1091.96 1269.99 C 1079.1 1268.6 1082.33 1272.69 1082.59 1256.93 C 1103.16 1223.24 1122.26 1187.74 1142.62 1153.77 C 1150.65 1140.37 1161.48 1117.47 1171.35 1105.73 C 1174.13 1102.43 1192.45 1090.68 1197.24 1087.56 C 1212.9 1077.31 1228.65 1067.21 1244.5 1057.27 C 1255.41 1050.49 1266.17 1043.48 1276.77 1036.22 C 1281.43 1033.05 1292.84 1024.66 1297.23 1022.59 C 1300.87 1015.93 1301.17 996.99 1303.6 988.287 C 1304.73 984.245 1306.16 970.295 1305.77 966.158 C 1308.26 959.564 1315.32 951.912 1312.92 944.974 C 1315.66 941.374 1342.85 924.112 1348.83 920.197 C 1351.09 919.88 1358.95 920.155 1359.46 918.987 C 1363.06 910.716 1368.82 912.12 1373.21 904.392 z" fill="rgb(45,43,8)" transform="translate(0,0)"></path>
<path d="M 1373.21 904.392 C 1374.91 902.719 1380.73 899.131 1383.05 897.393 C 1397.18 886.845 1418.28 876.209 1430.9 864.547 C 1433.98 861.694 1443.73 843.991 1448.25 837.724 C 1444.82 851.64 1449.21 902.315 1448.85 919.551 C 1448.83 920.7 1452.05 921.567 1453.04 921.78 C 1451.04 924.488 1304.92 1019.36 1297.23 1022.59 C 1300.87 1015.93 1301.17 996.99 1303.6 988.287 C 1304.73 984.245 1306.16 970.295 1305.77 966.158 C 1308.26 959.564 1315.32 951.912 1312.92 944.974 C 1315.66 941.374 1342.85 924.112 1348.83 920.197 C 1351.09 919.88 1358.95 920.155 1359.46 918.987 C 1363.06 910.716 1368.82 912.12 1373.21 904.392 z" fill="rgb(209,212,36)" transform="translate(0,0)"></path>
<path d="M 503.351 862.222 L 573.062 908.109 C 577.379 910.963 594.994 923.342 598.106 924.439 C 600.584 925.687 603.973 928.235 606.389 929.82 C 613.475 934.389 635.166 948.957 641.869 952.127 C 644.354 954.587 664.128 966.934 667.579 968.856 C 676.127 975.023 743.484 1019.16 748.497 1019.85 C 753.112 1024.57 762.838 1030.04 768.779 1033.93 C 786.684 1045.69 804.69 1057.3 822.795 1068.75 C 840.512 1080.08 863.018 1093.29 878.525 1107.2 C 881.762 1110.1 886.283 1121 888.875 1125.63 L 921.246 1182.46 C 935.162 1206.8 951.931 1233.59 965.388 1258.52 C 965.494 1258.66 965.6 1258.8 965.706 1258.93 C 964.987 1274.59 968.677 1267.45 956.697 1270.44 L 708.246 1102.68 L 637.995 1056.46 C 628.436 1050.21 599.082 1032.08 592.835 1024.48 C 582.916 1012.43 569.508 988.246 560.214 973.928 C 538.539 940.534 515.309 906.13 494.249 872.391 C 494.937 859.361 491.09 862.9 503.351 862.222 z" fill="rgb(45,43,8)" transform="translate(0,0)"></path>
<path d="M 1299.75 1180.64 C 1303.07 1186.04 1300.19 1198.36 1299.04 1204.42 C 1293.01 1236.22 1274.18 1245.78 1249.49 1262.6 L 1194.24 1300.23 L 1087.32 1372.7 C 1067.99 1385.8 1043.79 1403.11 1024.09 1414.99 C 962.886 1374.42 901.955 1333.42 841.306 1292.02 C 827.642 1282.63 813.924 1273.32 800.151 1264.1 C 775.571 1247.61 762.203 1242.57 751.582 1213.48 L 751.989 1211.88 C 753.157 1207.39 754.762 1205.19 754.289 1200.97 C 754.017 1198.54 751.344 1188.59 752.051 1187.17 C 751.913 1187.19 759.938 1187.39 760.981 1187.35 C 767.095 1192.35 779.959 1199.86 787.117 1204.62 L 854.411 1248.87 L 931.526 1299.83 C 951.879 1313.5 978.528 1333.09 1000.28 1342.63 C 1013.83 1348.58 1037.85 1347.98 1051.17 1342.64 C 1062.96 1337.91 1084.63 1322.24 1096.66 1314.46 L 1241.22 1219.13 C 1258.56 1207.69 1276.94 1195.61 1294.19 1183.9 C 1295.85 1182.78 1297.7 1182.09 1299.75 1180.64 z" fill="rgb(209,212,36)" fill-opacity="0.984314" transform="translate(0,0)"></path>
<path d="M 606.389 929.82 C 606.581 922.604 603.573 861.601 607.376 860.092 C 608.456 860.797 608.574 862.63 609.541 863.514 C 610.755 863.78 613.373 861.911 614.379 861.31 C 619.56 869.413 698.986 918.219 712.479 928.037 C 717.151 931.437 733.025 940.734 737.227 945.063 C 731.546 950.577 743.797 964.863 743.462 970.575 C 742.623 984.903 747.646 997.228 747.148 1010.68 C 746.516 1014.5 747.373 1016.15 748.497 1019.85 C 743.484 1019.16 676.127 975.023 667.579 968.856 C 666.859 967.258 665.481 965.496 665.092 963.685 C 663.364 955.631 658.158 961.847 652.907 956.728 C 650.236 954.123 644.98 951.846 641.869 952.127 C 635.166 948.957 613.475 934.389 606.389 929.82 z" fill="rgb(209,212,36)" fill-opacity="0.984314" transform="translate(0,0)"></path>
<path d="M 603.687 853.266 C 604.457 849.824 603.389 846.887 603.807 844.698 L 604.069 844.402 C 605.347 844.465 613.551 859.702 614.379 861.31 C 613.373 861.911 610.755 863.78 609.541 863.514 C 608.574 862.63 608.456 860.797 607.376 860.092 C 603.573 861.601 606.581 922.604 606.389 929.82 C 603.973 928.235 600.584 925.687 598.106 924.439 C 605.444 914.665 600.11 914.897 600.707 905.49 C 601.714 889.64 598.766 867.807 603.687 853.266 z" fill="rgb(209,212,36)" fill-opacity="0.890196" transform="translate(0,0)"></path>
<path d="M 737.227 945.063 C 750.714 950.974 762.117 962.521 773.975 968.899 C 766.73 970.226 766.639 964.572 759.144 961.275 C 754.99 959.449 736.748 945.075 744.742 962.695 C 746.831 967.299 745.72 980.808 746.476 986.502 C 748.346 994.95 750.051 1001.87 747.148 1010.68 C 747.646 997.228 742.623 984.903 743.462 970.575 C 743.797 964.863 731.546 950.577 737.227 945.063 z" fill="rgb(254,252,251)" fill-opacity="0.12549" transform="translate(0,0)"></path>
<path d="M 494.249 872.391 C 491.577 869.126 492.411 868.292 490.355 865.323 C 487.523 861.235 483.592 857.519 480.392 854.022 C 479.198 852.718 481.984 848.937 484.012 848.769 C 487.489 848.483 489.988 852.877 492.674 854.518 C 495.906 857.437 500.153 859.706 503.351 862.222 C 491.09 862.9 494.937 859.361 494.249 872.391 z" fill="rgb(45,43,8)" fill-opacity="0.941176" transform="translate(0,0)"></path>
<path d="M 747.159 1177.44 C 752.826 1186.17 753.974 1182.13 760.981 1187.35 C 759.938 1187.39 751.913 1187.19 752.051 1187.17 C 751.344 1188.59 754.017 1198.54 754.289 1200.97 C 754.762 1205.19 753.157 1207.39 751.989 1211.88 L 751.582 1213.48 C 748.55 1199.82 746.747 1191.61 747.159 1177.44 z" fill="rgb(209,212,36)" fill-opacity="0.913725" transform="translate(0,0)"></path>
<path d="M 446.354 574.223 C 443.254 570.199 430.611 555.657 437.999 553.675 C 438.636 553.504 452.947 564.003 455.479 565.504 C 445.407 568.097 446.283 561.954 446.354 574.223 z" fill="rgb(45,43,8)" fill-opacity="0.945098" transform="translate(0,0)"></path>
<path d="M 1082.59 1256.93 C 1082.33 1272.69 1079.1 1268.6 1091.96 1269.99 C 1086.44 1273.57 1084.89 1270.94 1080.39 1278.21 C 1073.77 1278.34 1074.18 1279.66 1072.2 1273.27 L 1073.19 1272.36 C 1075.56 1270.24 1080.53 1260.09 1082.59 1256.93 z" fill="rgb(45,43,8)" fill-opacity="0.976471" transform="translate(0,0)"></path>
<path d="M 1588.11 570.316 C 1593.01 566.566 1594.6 566.789 1599.6 561.618 L 1600.91 560.315 L 1602.46 560.736 C 1607.81 561.884 1606.1 563.87 1605.41 568.993 C 1602.31 570.288 1600.31 578.598 1597.74 582.162 C 1596.96 567.891 1601.26 570.851 1588.11 570.316 z" fill="rgb(45,43,8)" fill-opacity="0.972549" transform="translate(0,0)"></path>
<path d="M 1551.91 857.567 C 1559.08 858.711 1558.25 856.704 1558.83 863.717 C 1555.8 866.418 1552.27 875.12 1549.55 879.023 C 1549.45 866.708 1553.34 866.804 1543.13 865.906 C 1546.96 863.093 1549.3 861.777 1551.91 857.567 z" fill="rgb(45,43,8)" fill-opacity="0.972549" transform="translate(0,0)"></path>
<path d="M 965.706 1258.93 C 969.375 1263.91 969.612 1267.34 974.659 1272.34 C 974.4 1279.35 974.331 1278.08 967.156 1278.01 C 964.743 1274.89 960.01 1272.63 956.697 1270.44 C 968.677 1267.45 964.987 1274.59 965.706 1258.93 z" fill="rgb(45,43,8)" fill-opacity="0.964706" transform="translate(0,0)"></path>
<path d="M 1297.72 953.766 C 1306.61 950.072 1303.34 946.106 1312.92 944.974 C 1315.32 951.912 1308.26 959.564 1305.77 966.158 C 1304.89 951.873 1309.01 955.962 1297.72 953.766 z" fill="rgb(254,252,251)" fill-opacity="0.0156863" transform="translate(0,0)"></path>
<path d="M 974.659 1272.34 C 977.902 1274.42 983.698 1283.26 979.83 1287.56 C 978.785 1287.85 977.187 1287.52 977.011 1287.11 C 974.247 1280.61 970.897 1281.76 967.156 1278.01 C 974.331 1278.08 974.4 1279.35 974.659 1272.34 z" fill="rgb(55,50,26)" fill-opacity="0.65098" transform="translate(0,0)"></path>
<path d="M 641.869 952.127 C 644.98 951.846 650.236 954.123 652.907 956.728 C 658.158 961.847 663.364 955.631 665.092 963.685 C 665.481 965.496 666.859 967.258 667.579 968.856 C 664.128 966.934 644.354 954.587 641.869 952.127 z" fill="rgb(209,212,36)" fill-opacity="0.917647" transform="translate(0,0)"></path>
<path d="M 1551.91 857.567 C 1568 844.739 1570.64 853.568 1558.83 863.717 C 1558.25 856.704 1559.08 858.711 1551.91 857.567 z" fill="rgb(45,43,8)" fill-opacity="0.819608" transform="translate(0,0)"></path>
<path d="M 1080.39 1278.21 C 1076.73 1282.3 1074.26 1280.18 1072.28 1285.02 C 1071.87 1286.04 1069.82 1286.65 1068.85 1286.91 L 1067.47 1285.93 C 1067.03 1280.76 1068.44 1277.35 1072.2 1273.27 C 1074.18 1279.66 1073.77 1278.34 1080.39 1278.21 z" fill="rgb(45,43,8)" fill-opacity="0.623529" transform="translate(0,0)"></path>
<path d="M 1373.21 904.392 C 1368.82 912.12 1363.06 910.716 1359.46 918.987 C 1358.95 920.155 1351.09 919.88 1348.83 920.197 C 1356.1 915.15 1365.62 908.629 1373.21 904.392 z" fill="rgb(209,212,36)" fill-opacity="0.941176" transform="translate(0,0)"></path>
<path d="M 1600.91 560.315 C 1617.55 548.657 1614.02 560.841 1605.41 568.993 C 1606.1 563.87 1607.81 561.884 1602.46 560.736 L 1600.91 560.315 z" fill="rgb(45,43,8)" fill-opacity="0.772549" transform="translate(0,0)"></path>
<metadata></metadata></svg>